<svg width="960" height="1280" viewBox="0 0 960 1280" fill="none" xmlns="http://www.w3.org/2000/svg">
<rect x="49" y="50" width="847" height="124" fill="#14FF00"/>
<rect x="56" y="998" width="847" height="224" fill="#14FF00"/>
<path fill-rule="evenodd" clip-rule="evenodd" d="M0 0H960V1280H0V0ZM91.1182 146.497C91.5024 146.833 91.9341 147.001 92.4141 147.001H102.062C102.59 147.001 103.022 146.833 103.358 146.497C103.742 146.161 103.934 145.729 103.934 145.201V98.4012C103.934 98.1433 103.888 97.9082 103.796 97.696C103.701 97.474 103.555 97.2771 103.358 97.1052C103.233 96.9797 103.094 96.8777 102.942 96.7991C102.687 96.6671 102.393 96.6012 102.062 96.6012H92.4141C92.1914 96.6012 91.979 96.6373 91.7773 96.7096C91.5439 96.7932 91.3242 96.925 91.1182 97.1052C90.9604 97.2628 90.8398 97.4415 90.7563 97.6414C90.6616 97.8676 90.6143 98.1208 90.6143 98.4012V145.201C90.6143 145.681 90.7822 146.113 91.1182 146.497ZM114.462 146.497C114.846 146.833 115.278 147.001 115.758 147.001H124.398C124.926 147.001 125.358 146.833 125.694 146.497C126.03 146.113 126.198 145.681 126.198 145.201V118.993L143.766 145.633C144.294 146.545 145.086 147.001 146.142 147.001H153.846C154.374 147.001 154.806 146.833 155.142 146.497C155.478 146.113 155.646 145.657 155.646 145.129V98.4012C155.646 97.8732 155.478 97.4412 155.142 97.1052C154.924 96.8868 154.665 96.7395 154.366 96.6631C154.281 96.6416 154.194 96.6257 154.104 96.6154C154.021 96.606 153.935 96.6012 153.846 96.6012H145.206C144.726 96.6012 144.294 96.7692 143.91 97.1052C143.574 97.4412 143.406 97.8732 143.406 98.4012V125.617L125.838 97.9692C125.406 97.0573 124.59 96.6012 123.39 96.6012H115.758C115.278 96.6012 114.846 96.7692 114.462 97.1052C114.126 97.4412 113.958 97.8732 113.958 98.4012V145.201C113.958 145.681 114.126 146.113 114.462 146.497ZM177.3 146.497C177.684 146.833 178.116 147.001 178.596 147.001H188.1C188.628 147.001 189.06 146.833 189.396 146.497C189.732 146.113 189.9 145.681 189.9 145.201V107.905H202.716C203.038 107.905 203.323 107.843 203.574 107.719C203.734 107.638 203.88 107.533 204.012 107.401C204.348 107.065 204.516 106.633 204.516 106.105V98.4012C204.516 97.8732 204.348 97.4412 204.012 97.1052C203.676 96.7692 203.244 96.6012 202.716 96.6012H163.98C163.732 96.6012 163.497 96.6461 163.274 96.736C163.066 96.8198 162.87 96.9429 162.684 97.1052C162.348 97.4412 162.18 97.8732 162.18 98.4012V106.105C162.18 106.456 162.27 106.781 162.449 107.08C162.515 107.191 162.594 107.298 162.684 107.401C163.068 107.737 163.5 107.905 163.98 107.905H176.796V145.201C176.796 145.681 176.964 146.113 177.3 146.497ZM211.563 146.497C211.948 146.833 212.379 147.001 212.859 147.001H222.147C222.675 147.001 223.107 146.833 223.443 146.497C223.828 146.161 224.02 145.729 224.02 145.201V129.217H231.364L239.571 145.057C240.147 146.353 241.131 147.001 242.523 147.001H252.1C252.332 147.001 252.546 146.948 252.743 146.843C252.872 146.774 252.994 146.683 253.107 146.569C253.443 146.233 253.611 145.873 253.611 145.489C253.611 145.249 253.54 144.985 253.396 144.697L243.532 126.985C246.315 125.737 248.5 123.937 250.083 121.585C251.667 119.233 252.459 116.377 252.459 113.017C252.459 107.785 250.684 103.753 247.131 100.921C243.627 98.0413 238.731 96.6012 232.443 96.6012H212.859C212.569 96.6012 212.296 96.6627 212.041 96.7858C211.875 96.8661 211.715 96.9725 211.563 97.1052C211.228 97.4412 211.06 97.8732 211.06 98.4012V145.201C211.06 145.681 211.228 146.113 211.563 146.497ZM237.339 117.409C236.188 118.465 234.507 118.993 232.299 118.993H224.02V106.609H232.299C234.556 106.609 236.235 107.185 237.339 108.337C238.492 109.441 239.067 110.953 239.067 112.873C239.067 114.793 238.492 116.305 237.339 117.409ZM266.097 142.753C269.937 146.065 275.241 147.721 282.009 147.721C288.681 147.721 293.913 146.065 297.705 142.753C301.545 139.441 303.465 134.449 303.465 127.777V98.4012C303.465 97.8732 303.297 97.4412 302.961 97.1052C302.625 96.7692 302.193 96.6012 301.665 96.6012H292.305C292.007 96.6012 291.728 96.6658 291.467 96.795C291.307 96.8743 291.154 96.9777 291.009 97.1052C290.673 97.4412 290.505 97.8732 290.505 98.4012V127.705C290.505 130.777 289.761 133.105 288.273 134.689C286.785 136.273 284.673 137.065 281.937 137.065C279.153 137.065 277.017 136.297 275.529 134.761C274.089 133.177 273.369 130.825 273.369 127.705V98.4012C273.369 97.8732 273.177 97.4412 272.793 97.1052C272.457 96.7692 272.025 96.6012 271.497 96.6012H262.209C261.729 96.6012 261.297 96.7692 260.913 97.1052C260.577 97.4412 260.409 97.8732 260.409 98.4012V127.777C260.409 134.449 262.305 139.441 266.097 142.753ZM313.517 146.497C313.901 146.833 314.333 147.001 314.812 147.001H333.893C340.997 147.001 346.396 145.393 350.093 142.177C353.836 138.913 355.829 133.945 356.069 127.273C356.117 125.929 356.141 124.105 356.141 121.801C356.141 119.497 356.117 117.649 356.069 116.257C355.876 109.873 353.836 105.001 349.949 101.641C346.061 98.2812 340.589 96.6012 333.533 96.6012H314.812C314.333 96.6012 313.901 96.7692 313.517 97.1052C313.181 97.4412 313.013 97.8732 313.013 98.4012V145.201C313.013 145.681 313.181 146.113 313.517 146.497ZM340.517 134.401C339.029 135.889 336.701 136.633 333.533 136.633H325.973V106.969H333.173C336.341 106.969 338.717 107.737 340.301 109.273C341.933 110.809 342.797 113.185 342.893 116.401C342.989 117.745 343.037 119.521 343.037 121.729C343.037 123.937 342.989 125.737 342.893 127.129C342.797 130.441 342.005 132.865 340.517 134.401ZM365.056 146.497C365.44 146.833 365.872 147.001 366.352 147.001H400.552C401.08 147.001 401.512 146.833 401.848 146.497C402.184 146.113 402.352 145.681 402.352 145.201V138.433C402.352 137.905 402.184 137.473 401.848 137.137C401.512 136.801 401.08 136.633 400.552 136.633H377.008V126.625H398.392C398.92 126.625 399.352 126.457 399.688 126.121C400.024 125.737 400.192 125.305 400.192 124.825V118.561C400.192 118.333 400.16 118.122 400.097 117.929C400.015 117.677 399.878 117.456 399.688 117.265C399.352 116.881 398.92 116.689 398.392 116.689H377.008V106.969H399.976C400.214 106.969 400.434 106.935 400.633 106.866C400.875 106.783 401.087 106.649 401.271 106.465C401.608 106.081 401.776 105.649 401.776 105.169V98.4012C401.776 97.8732 401.608 97.4412 401.271 97.1052C400.936 96.7692 400.504 96.6012 399.976 96.6012H366.352C365.872 96.6012 365.44 96.7692 365.056 97.1052C364.72 97.4412 364.552 97.8732 364.552 98.4012V145.201C364.552 145.681 364.72 146.113 365.056 146.497ZM411.04 146.497C411.424 146.833 411.856 147.001 412.336 147.001H421.624C422.152 147.001 422.584 146.833 422.92 146.497C423.077 146.36 423.202 146.206 423.295 146.036C423.429 145.791 423.496 145.513 423.496 145.201V129.217H430.84L439.048 145.057C439.624 146.353 440.608 147.001 442 147.001H451.576C451.96 147.001 452.296 146.857 452.584 146.569C452.92 146.233 453.088 145.873 453.088 145.489C453.088 145.367 453.069 145.238 453.032 145.103C453.012 145.031 452.987 144.958 452.957 144.883C452.932 144.822 452.903 144.76 452.872 144.697L443.008 126.985C445.792 125.737 447.976 123.937 449.56 121.585C451.144 119.233 451.936 116.377 451.936 113.017C451.936 107.785 450.16 103.753 446.608 100.921C443.104 98.0413 438.208 96.6012 431.92 96.6012H412.336C411.856 96.6012 411.424 96.7692 411.04 97.1052C410.704 97.4412 410.536 97.8732 410.536 98.4012V145.201C410.536 145.681 410.704 146.113 411.04 146.497ZM436.816 117.409C435.664 118.465 433.984 118.993 431.776 118.993H423.496V106.609H431.776C434.032 106.609 435.712 107.185 436.816 108.337C437.968 109.441 438.544 110.953 438.544 112.873C438.544 114.793 437.968 116.305 436.816 117.409ZM476.149 146.497C476.534 146.833 476.965 147.001 477.445 147.001H496.525C503.629 147.001 509.029 145.393 512.726 142.177C516.469 138.913 518.461 133.945 518.702 127.273C518.721 126.737 518.736 126.125 518.748 125.436C518.765 124.398 518.773 123.186 518.773 121.801C518.773 119.497 518.75 117.649 518.702 116.257C518.509 109.873 516.469 105.001 512.582 101.641C508.693 98.2812 503.222 96.6012 496.166 96.6012H477.445C476.965 96.6012 476.534 96.7692 476.149 97.1052C475.813 97.4412 475.646 97.8732 475.646 98.4012V145.201C475.646 145.681 475.813 146.113 476.149 146.497ZM503.149 134.401C501.662 135.889 499.333 136.633 496.166 136.633H488.605V106.969H495.806C498.974 106.969 501.35 107.737 502.934 109.273C504.565 110.809 505.43 113.185 505.525 116.401C505.622 117.745 505.669 119.521 505.669 121.729C505.669 123.937 505.622 125.737 505.525 127.129C505.43 130.441 504.638 132.865 503.149 134.401ZM527.688 146.497C528.073 146.833 528.504 147.001 528.984 147.001H563.185C563.712 147.001 564.145 146.833 564.48 146.497C564.816 146.113 564.984 145.681 564.984 145.201V138.433C564.984 137.905 564.816 137.473 564.48 137.137C564.145 136.801 563.712 136.633 563.185 136.633H539.641V126.625H561.024C561.553 126.625 561.984 126.457 562.32 126.121C562.657 125.737 562.825 125.305 562.825 124.825V118.561C562.825 118.443 562.816 118.329 562.799 118.22C562.783 118.119 562.76 118.021 562.73 117.928C562.647 117.677 562.511 117.456 562.32 117.265C561.984 116.881 561.553 116.689 561.024 116.689H539.641V106.969H562.608C563.137 106.969 563.568 106.801 563.904 106.465C564.241 106.081 564.409 105.649 564.409 105.169V98.4012C564.409 97.8732 564.241 97.4412 563.904 97.1052C563.568 96.7692 563.137 96.6012 562.608 96.6012H528.984C528.504 96.6012 528.073 96.7692 527.688 97.1052C527.353 97.4412 527.185 97.8732 527.185 98.4012V145.201C527.185 145.681 527.353 146.113 527.688 146.497ZM584.761 146.497C585.145 146.833 585.577 147.001 586.057 147.001H595.561C596.089 147.001 596.521 146.833 596.857 146.497C597.193 146.113 597.361 145.681 597.361 145.201V107.905H610.177C610.705 107.905 611.137 107.737 611.473 107.401C611.809 107.065 611.977 106.633 611.977 106.105V98.4012C611.977 97.8732 611.809 97.4412 611.473 97.1052C611.137 96.7692 610.705 96.6012 610.177 96.6012H571.441C570.961 96.6012 570.529 96.7692 570.145 97.1052C569.809 97.4412 569.641 97.8732 569.641 98.4012V106.105C569.641 106.585 569.809 107.017 570.145 107.401C570.529 107.737 570.961 107.905 571.441 107.905H584.257V145.201C584.257 145.339 584.271 145.472 584.298 145.601C584.328 145.742 584.374 145.877 584.436 146.008C584.517 146.179 584.625 146.342 584.761 146.497ZM619.024 146.497C619.409 146.833 619.84 147.001 620.32 147.001H654.521C655.048 147.001 655.48 146.833 655.816 146.497C656.152 146.113 656.32 145.681 656.32 145.201V138.433C656.32 137.905 656.152 137.473 655.816 137.137C655.48 136.801 655.048 136.633 654.521 136.633H630.977V126.625H652.36C652.889 126.625 653.32 126.457 653.656 126.121C653.825 125.929 653.951 125.724 654.035 125.507C654.119 125.292 654.161 125.065 654.161 124.825V118.561C654.161 118.033 653.993 117.601 653.656 117.265C653.32 116.881 652.889 116.689 652.36 116.689H630.977V106.969H653.944C654.473 106.969 654.904 106.801 655.24 106.465C655.577 106.081 655.745 105.649 655.745 105.169V98.4012C655.745 97.8732 655.577 97.4412 655.24 97.1052C655.143 97.0079 655.038 96.9248 654.924 96.8557C654.87 96.8225 654.813 96.7926 654.755 96.766C654.517 96.6561 654.247 96.6012 653.944 96.6012H620.32C619.84 96.6012 619.409 96.7692 619.024 97.1052C618.688 97.4412 618.521 97.8732 618.521 98.4012V145.201C618.521 145.681 618.688 146.113 619.024 146.497ZM668.619 142.753C672.507 146.065 677.883 147.721 684.747 147.721C688.971 147.721 692.763 147.025 696.123 145.633C699.483 144.193 702.123 142.177 704.043 139.585C706.011 136.945 707.019 133.873 707.067 130.369C707.115 129.937 706.971 129.577 706.635 129.289C706.347 129.001 705.987 128.857 705.555 128.857H695.835C695.46 128.857 695.138 128.902 694.868 128.991C694.653 129.062 694.472 129.162 694.323 129.289C693.987 129.529 693.723 130.009 693.531 130.729C692.955 133.081 691.923 134.785 690.435 135.841C688.947 136.849 687.027 137.353 684.675 137.353C679.011 137.353 676.083 134.185 675.891 127.849C675.859 126.931 675.838 125.73 675.827 124.247C675.822 123.482 675.819 122.643 675.819 121.729C675.819 119.041 675.843 117.049 675.891 115.753C676.083 109.417 679.011 106.249 684.675 106.249C687.027 106.249 688.923 106.753 690.363 107.761C691.803 108.721 692.859 110.425 693.531 112.873C693.671 113.293 693.827 113.64 694 113.912C694.123 114.108 694.255 114.265 694.395 114.385C694.731 114.625 695.211 114.745 695.835 114.745H705.555C705.939 114.745 706.275 114.625 706.563 114.385C706.899 114.097 707.067 113.761 707.067 113.377V113.233C707.019 109.729 706.011 106.681 704.043 104.089C702.123 101.449 699.483 99.4332 696.123 98.0413C692.763 96.6012 688.971 95.8812 684.747 95.8812C678.027 95.8812 672.699 97.5852 668.763 100.993C664.827 104.353 662.739 109.153 662.499 115.393C662.451 116.737 662.427 118.897 662.427 121.873C662.427 124.801 662.451 126.913 662.499 128.209C662.739 134.545 664.779 139.393 668.619 142.753ZM726.229 146.497C726.404 146.65 726.589 146.768 726.784 146.851C727.017 146.951 727.264 147.001 727.526 147.001H737.03C737.558 147.001 737.99 146.833 738.326 146.497C738.662 146.113 738.83 145.681 738.83 145.201V107.905H751.646C752.174 107.905 752.605 107.737 752.942 107.401C753.017 107.327 753.083 107.247 753.141 107.163C753.228 107.037 753.296 106.9 753.346 106.752C753.383 106.643 753.41 106.528 753.426 106.407C753.439 106.31 753.446 106.21 753.446 106.105V98.4012C753.446 97.8732 753.278 97.4412 752.942 97.1052C752.605 96.7692 752.174 96.6012 751.646 96.6012H712.91C712.43 96.6012 711.998 96.7692 711.614 97.1052C711.278 97.4412 711.11 97.8732 711.11 98.4012V106.105C711.11 106.585 711.278 107.017 711.614 107.401C711.799 107.563 711.995 107.686 712.203 107.77C712.426 107.86 712.661 107.905 712.91 107.905H725.726V145.201C725.726 145.681 725.894 146.113 726.229 146.497ZM760.493 146.497C760.712 146.688 760.946 146.825 761.195 146.908C761.384 146.97 761.582 147.001 761.789 147.001H795.989C796.517 147.001 796.949 146.833 797.285 146.497C797.621 146.113 797.789 145.681 797.789 145.201V138.433C797.789 137.905 797.621 137.473 797.285 137.137C797.137 136.989 796.971 136.874 796.785 136.791C796.702 136.754 796.616 136.723 796.525 136.699C796.359 136.655 796.181 136.633 795.989 136.633H772.445V126.625H793.829C794.357 126.625 794.789 126.457 795.125 126.121C795.461 125.737 795.629 125.305 795.629 124.825V118.561C795.629 118.033 795.461 117.601 795.125 117.265C794.789 116.881 794.357 116.689 793.829 116.689H772.445V106.969H795.413C795.941 106.969 796.373 106.801 796.709 106.465C797.045 106.081 797.213 105.649 797.213 105.169V98.4012C797.213 97.8732 797.045 97.4412 796.709 97.1052C796.373 96.7692 795.941 96.6012 795.413 96.6012H761.789C761.309 96.6012 760.877 96.7692 760.493 97.1052C760.157 97.4412 759.989 97.8732 759.989 98.4012V145.201C759.989 145.681 760.157 146.113 760.493 146.497ZM806.478 146.497C806.862 146.833 807.293 147.001 807.773 147.001H826.854C833.958 147.001 839.357 145.393 843.054 142.177C846.797 138.913 848.79 133.945 849.03 127.273C849.078 125.929 849.102 124.105 849.102 121.801C849.102 119.497 849.078 117.649 849.03 116.257C848.837 109.873 846.797 105.001 842.91 101.641C839.021 98.2812 833.55 96.6012 826.494 96.6012H807.773C807.618 96.6012 807.467 96.619 807.321 96.6545C807.164 96.6926 807.013 96.7512 806.868 96.8303C806.826 96.8535 806.784 96.8784 806.742 96.9052C806.651 96.9635 806.563 97.0302 806.478 97.1052C806.142 97.4412 805.974 97.8732 805.974 98.4012V145.201C805.974 145.681 806.142 146.113 806.478 146.497ZM833.478 134.401C831.99 135.889 829.662 136.633 826.494 136.633H818.934V106.969H826.134C829.302 106.969 831.678 107.737 833.262 109.273C834.894 110.809 835.758 113.185 835.854 116.401C835.95 117.745 835.998 119.521 835.998 121.729C835.998 123.937 835.95 125.737 835.854 127.129C835.758 130.441 834.966 132.865 833.478 134.401ZM857.513 130.585C857.896 130.921 858.329 131.089 858.809 131.089H867.089C867.617 131.089 868.049 130.921 868.385 130.585C868.721 130.201 868.889 129.769 868.889 129.289V98.4012C868.889 97.8732 868.721 97.4412 868.385 97.1052C868.049 96.7692 867.617 96.6012 867.089 96.6012H858.809C858.329 96.6012 857.896 96.7692 857.513 97.1052C857.177 97.4412 857.009 97.8732 857.009 98.4012V129.289C857.009 129.495 857.04 129.691 857.101 129.879C857.183 130.13 857.32 130.365 857.513 130.585ZM857.225 146.497C857.561 146.833 857.993 147.001 858.521 147.001H867.376C867.905 147.001 868.336 146.833 868.673 146.497C868.809 146.341 868.918 146.178 868.999 146.006C869.118 145.755 869.177 145.486 869.177 145.201V136.345C869.177 135.817 868.985 135.385 868.601 135.049C868.265 134.665 867.856 134.473 867.376 134.473H858.521C857.993 134.473 857.561 134.665 857.225 135.049C856.889 135.385 856.721 135.817 856.721 136.345V145.201C856.721 145.729 856.889 146.161 857.225 146.497ZM256.68 1072.56C256.967 1073.52 257.624 1074 258.647 1074H265.992C267.016 1074 267.671 1073.52 267.959 1072.56L277.751 1041.84L277.848 1041.41C277.848 1041.15 277.735 1040.93 277.512 1040.74C277.319 1040.51 277.096 1040.4 276.839 1040.4H270.839C270.633 1040.4 270.44 1040.43 270.261 1040.48C270.103 1040.53 269.955 1040.6 269.817 1040.69C269.773 1040.72 269.729 1040.75 269.688 1040.79C269.399 1041.04 269.208 1041.33 269.111 1041.65L262.343 1063.83L255.527 1041.65C255.432 1041.33 255.224 1041.04 254.903 1040.79C254.616 1040.53 254.248 1040.4 253.799 1040.4H247.848C247.56 1040.4 247.304 1040.51 247.08 1040.74C246.888 1040.93 246.792 1041.15 246.792 1041.41L246.888 1041.84L256.68 1072.56ZM282.665 1073.67C282.921 1073.89 283.209 1074 283.529 1074H289.961C290.208 1074 290.423 1073.95 290.607 1073.84C290.685 1073.79 290.758 1073.73 290.825 1073.67C291.001 1073.51 291.117 1073.33 291.172 1073.11C291.183 1073.07 291.191 1073.02 291.197 1072.98C291.205 1072.92 291.209 1072.86 291.209 1072.8V1041.6C291.209 1041.25 291.081 1040.96 290.825 1040.74C290.601 1040.51 290.313 1040.4 289.961 1040.4H283.529C283.37 1040.4 283.219 1040.43 283.076 1040.48C282.931 1040.54 282.793 1040.62 282.665 1040.74C282.441 1040.96 282.329 1041.25 282.329 1041.6V1072.8C282.329 1073.12 282.441 1073.41 282.665 1073.67ZM300.963 1071.17C303.555 1073.38 307.107 1074.48 311.619 1074.48C316.131 1074.48 319.683 1073.38 322.275 1071.17C324.867 1068.96 326.243 1065.71 326.403 1061.43C326.467 1059.57 326.499 1058.19 326.499 1057.3C326.499 1056.37 326.467 1054.98 326.403 1053.12C326.275 1048.9 324.883 1045.65 322.227 1043.38C319.571 1041.07 316.035 1039.92 311.619 1039.92C307.203 1039.92 303.667 1041.07 301.011 1043.38C298.387 1045.65 296.995 1048.9 296.835 1053.12L296.823 1053.54C296.815 1053.83 296.809 1054.17 296.803 1054.54C296.792 1055.3 296.787 1056.22 296.787 1057.3C296.787 1059.12 296.803 1060.5 296.835 1061.43C296.995 1065.71 298.371 1068.96 300.963 1071.17ZM315.795 1065.99C314.771 1067.04 313.379 1067.57 311.619 1067.57C309.859 1067.57 308.467 1067.04 307.443 1065.99C306.419 1064.93 305.859 1063.31 305.763 1061.14C305.731 1060.21 305.715 1058.9 305.715 1057.2C305.715 1055.47 305.731 1054.16 305.763 1053.27C305.859 1051.09 306.419 1049.47 307.443 1048.42C308.499 1047.36 309.891 1046.83 311.619 1046.83C313.347 1046.83 314.739 1047.36 315.795 1048.42C316.851 1049.47 317.411 1051.09 317.475 1053.27C317.503 1054.05 317.525 1054.74 317.541 1055.33C317.561 1056.11 317.571 1056.73 317.571 1057.2C317.571 1057.39 317.569 1057.61 317.565 1057.86C317.563 1058.04 317.56 1058.23 317.555 1058.44C317.539 1059.15 317.513 1060.05 317.475 1061.14C317.411 1063.31 316.851 1064.93 315.795 1065.99ZM332.399 1073.67C332.655 1073.89 332.943 1074 333.263 1074H355.343C355.695 1074 355.983 1073.89 356.207 1073.67C356.431 1073.41 356.543 1073.12 356.543 1072.8V1068C356.543 1067.8 356.505 1067.61 356.428 1067.45C356.374 1067.33 356.3 1067.23 356.207 1067.14C356.075 1066.99 355.92 1066.88 355.744 1066.82C355.621 1066.77 355.487 1066.75 355.343 1066.75H340.799V1041.6C340.799 1041.25 340.687 1040.96 340.463 1040.74C340.239 1040.51 339.951 1040.4 339.599 1040.4H333.263C332.943 1040.4 332.655 1040.51 332.399 1040.74C332.175 1040.96 332.063 1041.25 332.063 1041.6V1072.8C332.063 1072.89 332.071 1072.97 332.088 1073.06C332.11 1073.17 332.146 1073.27 332.197 1073.37C332.249 1073.47 332.316 1073.57 332.399 1073.67ZM358.064 1073.71C358.288 1073.91 358.528 1074 358.784 1074H364.688C365.488 1074 366.016 1073.67 366.272 1072.99L368.096 1068.1H380.912L382.784 1072.99C383.04 1073.67 383.552 1074 384.32 1074H390.224C390.285 1074 390.345 1074 390.402 1073.99C390.485 1073.98 390.564 1073.95 390.639 1073.92C390.703 1073.89 390.764 1073.86 390.822 1073.82C390.864 1073.79 390.905 1073.75 390.944 1073.71C391.083 1073.57 391.179 1073.43 391.231 1073.28C391.264 1073.19 391.28 1073.09 391.28 1072.99L391.184 1072.56L379.952 1041.75C379.887 1041.49 379.771 1041.26 379.604 1041.06C379.524 1040.96 379.432 1040.87 379.328 1040.79C379.008 1040.53 378.592 1040.4 378.08 1040.4H370.976C370.464 1040.4 370.048 1040.53 369.728 1040.79C369.408 1041.04 369.2 1041.36 369.104 1041.75L357.824 1072.56C357.792 1072.66 357.776 1072.8 357.776 1072.99C357.776 1073.16 357.815 1073.32 357.895 1073.47C357.938 1073.55 357.995 1073.63 358.064 1073.71ZM374.528 1048.51L378.992 1061.19H370.064L374.528 1048.51ZM399.567 1073.81C399.633 1073.85 399.701 1073.89 399.771 1073.91C399.917 1073.97 400.071 1074 400.233 1074H406.569C406.921 1074 407.209 1073.89 407.433 1073.67C407.657 1073.41 407.769 1073.12 407.769 1072.8V1047.94H416.313C416.507 1047.94 416.681 1047.9 416.836 1047.84C416.928 1047.8 417.013 1047.74 417.092 1047.68C417.121 1047.65 417.15 1047.63 417.177 1047.6C417.401 1047.38 417.513 1047.09 417.513 1046.74V1041.6C417.513 1041.25 417.401 1040.96 417.177 1040.74C417.066 1040.63 416.94 1040.54 416.798 1040.49C416.725 1040.46 416.648 1040.44 416.568 1040.42C416.487 1040.41 416.402 1040.4 416.313 1040.4H390.489C390.338 1040.4 390.194 1040.43 390.057 1040.48C389.904 1040.53 389.76 1040.62 389.625 1040.74C389.401 1040.96 389.289 1041.25 389.289 1041.6V1046.74C389.289 1047.06 389.401 1047.35 389.625 1047.6C389.881 1047.83 390.169 1047.94 390.489 1047.94H399.033V1072.8C399.033 1072.92 399.05 1073.04 399.083 1073.15C399.112 1073.26 399.154 1073.35 399.209 1073.45C399.254 1073.52 399.307 1073.59 399.369 1073.67C399.433 1073.72 399.499 1073.77 399.567 1073.81ZM424.432 1071.17C427.024 1073.38 430.576 1074.48 435.088 1074.48C439.6 1074.48 443.152 1073.38 445.744 1071.17C448.336 1068.96 449.712 1065.71 449.872 1061.43C449.936 1059.57 449.968 1058.19 449.968 1057.3C449.968 1056.37 449.936 1054.98 449.872 1053.12C449.744 1048.9 448.352 1045.65 445.696 1043.38C443.04 1041.07 439.504 1039.92 435.088 1039.92C430.672 1039.92 427.136 1041.07 424.48 1043.38C421.856 1045.65 420.464 1048.9 420.304 1053.12C420.296 1053.34 420.29 1053.58 420.284 1053.85C420.28 1054.06 420.276 1054.29 420.272 1054.53L420.268 1054.92C420.26 1055.6 420.256 1056.4 420.256 1057.3C420.256 1058.24 420.26 1059.06 420.269 1059.76C420.277 1060.42 420.289 1060.98 420.304 1061.43C420.464 1065.71 421.84 1068.96 424.432 1071.17ZM439.264 1065.99C438.24 1067.04 436.848 1067.57 435.088 1067.57C433.328 1067.57 431.936 1067.04 430.912 1065.99C429.888 1064.93 429.328 1063.31 429.232 1061.14C429.2 1060.21 429.184 1058.9 429.184 1057.2C429.184 1055.47 429.2 1054.16 429.232 1053.27C429.328 1051.09 429.888 1049.47 430.912 1048.42C431.968 1047.36 433.36 1046.83 435.088 1046.83C436.816 1046.83 438.208 1047.36 439.264 1048.42C440.32 1049.47 440.88 1051.09 440.944 1053.27C441.008 1055.06 441.04 1056.37 441.04 1057.2C441.04 1057.97 441.008 1059.28 440.944 1061.14C440.88 1063.31 440.32 1064.93 439.264 1065.99ZM455.868 1073.67C456.124 1073.89 456.412 1074 456.732 1074H462.924C463.276 1074 463.564 1073.89 463.788 1073.67C464.044 1073.44 464.172 1073.15 464.172 1072.8V1062.15H469.068L474.54 1072.71C474.924 1073.57 475.58 1074 476.508 1074H482.892C483.148 1074 483.372 1073.91 483.564 1073.71C483.788 1073.49 483.9 1073.25 483.9 1072.99C483.9 1072.83 483.852 1072.66 483.756 1072.47L477.18 1060.66C479.036 1059.83 480.492 1058.63 481.548 1057.06C482.604 1055.49 483.132 1053.59 483.132 1051.35C483.132 1047.86 481.948 1045.17 479.58 1043.28C477.244 1041.36 473.98 1040.4 469.788 1040.4H456.732C456.632 1040.4 456.536 1040.41 456.443 1040.43C456.363 1040.45 456.285 1040.48 456.209 1040.51C456.145 1040.54 456.082 1040.58 456.021 1040.62C455.968 1040.65 455.917 1040.69 455.868 1040.74C455.841 1040.76 455.817 1040.79 455.794 1040.82C455.779 1040.84 455.765 1040.85 455.751 1040.87C455.605 1041.07 455.532 1041.32 455.532 1041.6V1072.8C455.532 1073.12 455.644 1073.41 455.868 1073.67ZM473.052 1054.27C472.284 1054.98 471.164 1055.33 469.692 1055.33H464.172V1047.07H469.692C471.196 1047.07 472.316 1047.46 473.052 1048.23C473.82 1048.96 474.204 1049.97 474.204 1051.25C474.204 1052.53 473.82 1053.54 473.052 1054.27ZM493.423 1073.14C495.6 1074.03 498.208 1074.48 501.248 1074.48C504.063 1074.48 506.56 1074.07 508.735 1073.23C510.943 1072.37 512.655 1071.15 513.872 1069.59C515.119 1067.99 515.743 1066.11 515.743 1063.97C515.743 1062.02 515.327 1060.4 514.496 1059.12C513.664 1057.81 512.352 1056.75 510.56 1055.95C508.799 1055.12 506.431 1054.43 503.456 1053.89C501.631 1053.51 500.223 1053.14 499.231 1052.79C498.271 1052.4 497.567 1051.99 497.119 1051.54C496.704 1051.09 496.496 1050.53 496.496 1049.86C496.496 1048.87 496.879 1048.11 497.647 1047.6C498.416 1047.09 499.52 1046.83 500.959 1046.83C502.208 1046.83 503.248 1047.09 504.08 1047.6C504.943 1048.11 505.471 1048.74 505.664 1049.47C505.81 1049.69 505.965 1049.87 506.129 1049.99C506.181 1050.03 506.234 1050.07 506.288 1050.1C506.543 1050.23 506.863 1050.29 507.248 1050.29H513.583C513.872 1050.29 514.111 1050.19 514.303 1050C514.496 1049.81 514.591 1049.57 514.591 1049.28C514.527 1047.87 513.951 1046.45 512.863 1045.01C511.808 1043.54 510.255 1042.32 508.208 1041.36C506.159 1040.4 503.743 1039.92 500.959 1039.92C498.271 1039.92 495.919 1040.35 493.903 1041.22C491.887 1042.08 490.335 1043.28 489.248 1044.82C488.159 1046.35 487.615 1048.1 487.615 1050.05C487.615 1052.93 488.56 1055.15 490.447 1056.72C492.367 1058.26 495.248 1059.43 499.087 1060.23C501.167 1060.67 502.735 1061.07 503.792 1061.43C504.847 1061.78 505.615 1062.18 506.095 1062.63C506.191 1062.71 506.278 1062.8 506.356 1062.89C506.437 1062.99 506.508 1063.09 506.57 1063.19C506.766 1063.53 506.863 1063.92 506.863 1064.35C506.863 1065.35 506.383 1066.13 505.423 1066.71C504.463 1067.28 503.071 1067.57 501.248 1067.57C499.711 1067.57 498.479 1067.3 497.551 1066.75C496.624 1066.21 495.951 1065.52 495.535 1064.69C495.5 1064.65 495.465 1064.61 495.43 1064.57C495.376 1064.52 495.323 1064.47 495.27 1064.42C495.191 1064.35 495.113 1064.28 495.034 1064.23C494.945 1064.16 494.856 1064.11 494.768 1064.07C494.543 1063.91 494.239 1063.83 493.855 1063.83H487.808C487.652 1063.83 487.506 1063.86 487.369 1063.92C487.311 1063.95 487.254 1063.98 487.2 1064.02C487.145 1064.06 487.091 1064.11 487.04 1064.16C486.847 1064.35 486.751 1064.58 486.751 1064.83C486.815 1066.56 487.392 1068.16 488.479 1069.63C489.6 1071.07 491.248 1072.24 493.423 1073.14ZM535.081 1073.91C535.285 1073.97 535.514 1074 535.767 1074H540.327C541.223 1074 541.815 1073.59 542.103 1072.75L546.951 1059.03L551.799 1072.75C551.864 1072.91 551.949 1073.07 552.054 1073.21C552.158 1073.36 552.281 1073.49 552.423 1073.62C552.547 1073.73 552.691 1073.81 552.856 1073.88C553.075 1073.96 553.331 1074 553.623 1074H558.183C558.695 1074 559.111 1073.86 559.431 1073.57C559.783 1073.25 559.991 1072.87 560.055 1072.42L565.287 1041.75L565.335 1041.41C565.335 1041.15 565.223 1040.93 564.999 1040.74C564.902 1040.62 564.793 1040.54 564.672 1040.48C564.553 1040.43 564.422 1040.4 564.279 1040.4H558.327C557.431 1040.4 556.935 1040.75 556.839 1041.46L553.719 1060.18L550.263 1049.14C550.007 1048.27 549.479 1047.84 548.679 1047.84H545.223C544.519 1047.84 543.991 1048.27 543.639 1049.14L540.183 1060.18L537.063 1041.46C536.967 1040.75 536.471 1040.4 535.575 1040.4H529.623C529.495 1040.4 529.372 1040.43 529.252 1040.49C529.224 1040.5 529.196 1040.51 529.168 1040.53C529.078 1040.58 528.989 1040.65 528.903 1040.74C528.711 1040.93 528.615 1041.15 528.615 1041.41C528.615 1041.54 528.631 1041.65 528.663 1041.75L533.895 1072.42C533.929 1072.66 534 1072.88 534.106 1073.08C534.139 1073.14 534.175 1073.2 534.214 1073.26C534.288 1073.37 534.374 1073.47 534.471 1073.57C534.642 1073.72 534.845 1073.84 535.081 1073.91ZM570.618 1073.67C570.774 1073.8 570.942 1073.9 571.123 1073.95C571.237 1073.98 571.357 1074 571.482 1074H577.914C578.266 1074 578.554 1073.89 578.778 1073.67C578.86 1073.59 578.929 1073.51 578.985 1073.43C579.001 1073.4 579.017 1073.38 579.032 1073.35L579.061 1073.29C579.128 1073.15 579.162 1072.98 579.162 1072.8V1041.6C579.162 1041.54 579.158 1041.48 579.15 1041.42C579.144 1041.38 579.135 1041.33 579.125 1041.29C579.111 1041.24 579.093 1041.18 579.071 1041.13C579.055 1041.1 579.038 1041.06 579.018 1041.03C578.978 1040.96 578.929 1040.89 578.873 1040.83C578.857 1040.81 578.841 1040.8 578.825 1040.78L578.778 1040.74C578.554 1040.51 578.266 1040.4 577.914 1040.4H571.482C571.162 1040.4 570.874 1040.51 570.618 1040.74C570.459 1040.9 570.357 1041.09 570.311 1041.31C570.292 1041.4 570.282 1041.5 570.282 1041.6V1072.8C570.282 1073.12 570.394 1073.41 570.618 1073.67ZM586.18 1073.67C586.437 1073.89 586.725 1074 587.044 1074H609.125C609.39 1074 609.618 1073.94 609.81 1073.81C609.873 1073.77 609.933 1073.72 609.988 1073.67C610.11 1073.53 610.198 1073.38 610.254 1073.22C610.301 1073.09 610.324 1072.95 610.324 1072.8V1068C610.324 1067.65 610.212 1067.36 609.988 1067.14C609.764 1066.88 609.477 1066.75 609.125 1066.75H594.581V1041.6C594.581 1041.25 594.468 1040.96 594.244 1040.74C594.161 1040.65 594.07 1040.59 593.969 1040.53C593.798 1040.45 593.602 1040.4 593.38 1040.4H587.044C586.725 1040.4 586.437 1040.51 586.18 1040.74C585.957 1040.96 585.844 1041.25 585.844 1041.6V1072.8C585.844 1073.12 585.957 1073.41 586.18 1073.67ZM615.062 1073.84C615.254 1073.95 615.462 1074 615.685 1074H637.765C638.003 1074 638.212 1073.95 638.392 1073.85C638.435 1073.82 638.476 1073.8 638.516 1073.76C638.555 1073.73 638.593 1073.7 638.629 1073.67C638.719 1073.56 638.791 1073.45 638.845 1073.34C638.925 1073.17 638.965 1072.99 638.965 1072.8V1068C638.965 1067.87 638.948 1067.74 638.916 1067.62C638.885 1067.52 638.841 1067.42 638.782 1067.33C638.739 1067.26 638.688 1067.2 638.629 1067.14C638.405 1066.88 638.117 1066.75 637.765 1066.75H623.221V1041.6C623.221 1041.25 623.109 1040.96 622.885 1040.74C622.661 1040.51 622.373 1040.4 622.021 1040.4H615.685C615.585 1040.4 615.489 1040.41 615.396 1040.43C615.288 1040.46 615.184 1040.5 615.084 1040.55C614.993 1040.6 614.905 1040.66 614.821 1040.74C614.597 1040.96 614.485 1041.25 614.485 1041.6V1072.8C614.485 1073.12 614.597 1073.41 614.821 1073.67C614.898 1073.73 614.979 1073.79 615.062 1073.84ZM652.555 1073.67C652.812 1073.89 653.1 1074 653.419 1074H668.491C672.396 1074 675.403 1073.11 677.515 1071.31C679.627 1069.52 680.684 1067.03 680.684 1063.83C680.684 1062.16 680.235 1060.66 679.339 1059.31C678.443 1057.97 677.339 1056.99 676.027 1056.39C677.051 1055.87 677.963 1055.07 678.763 1053.99C679.595 1052.87 680.011 1051.51 680.011 1049.91C680.011 1046.87 679.02 1044.53 677.035 1042.9C675.083 1041.23 672.091 1040.4 668.06 1040.4H653.419C653.1 1040.4 652.812 1040.51 652.555 1040.74C652.332 1040.96 652.219 1041.25 652.219 1041.6V1072.8C652.219 1072.96 652.246 1073.1 652.298 1073.24C652.354 1073.39 652.439 1073.53 652.555 1073.67ZM670.027 1052.79C669.355 1053.43 668.379 1053.75 667.1 1053.75H660.859V1046.64H667.1C668.379 1046.64 669.355 1046.96 670.027 1047.6C670.699 1048.24 671.035 1049.09 671.035 1050.15C671.035 1051.23 670.699 1052.11 670.027 1052.79ZM670.604 1066.61C669.867 1067.38 668.843 1067.76 667.531 1067.76H660.859V1059.84H667.531C668.843 1059.84 669.867 1060.23 670.604 1060.99C671.339 1061.73 671.708 1062.67 671.708 1063.83C671.708 1064.91 671.339 1065.84 670.604 1066.61ZM686.352 1073.67C686.529 1073.82 686.721 1073.92 686.928 1073.97C687.021 1073.99 687.117 1074 687.216 1074H710.016C710.368 1074 710.656 1073.89 710.88 1073.67C711.104 1073.41 711.216 1073.12 711.216 1072.8V1068.29C711.216 1067.94 711.104 1067.65 710.88 1067.43C710.656 1067.2 710.368 1067.09 710.016 1067.09H694.32V1060.42H708.576C708.928 1060.42 709.216 1060.31 709.44 1060.08C709.556 1059.95 709.642 1059.81 709.697 1059.66C709.75 1059.52 709.776 1059.37 709.776 1059.22V1055.04C709.776 1054.69 709.664 1054.4 709.44 1054.18C709.216 1053.92 708.928 1053.79 708.576 1053.79H694.32V1047.31H709.632C709.866 1047.31 710.071 1047.26 710.248 1047.17C710.338 1047.12 710.42 1047.05 710.496 1046.98C710.72 1046.72 710.832 1046.43 710.832 1046.11V1041.6C710.832 1041.25 710.72 1040.96 710.496 1040.74C710.413 1040.65 710.321 1040.59 710.22 1040.53C710.05 1040.45 709.854 1040.4 709.632 1040.4H687.216C687.141 1040.4 687.066 1040.41 686.994 1040.42C686.86 1040.44 686.732 1040.49 686.61 1040.56C686.584 1040.57 686.559 1040.58 686.534 1040.6C686.472 1040.64 686.411 1040.69 686.352 1040.74C686.128 1040.96 686.016 1041.25 686.016 1041.6V1072.8C686.016 1073.12 686.128 1073.41 686.352 1073.67ZM165.618 1130.67C165.874 1130.89 166.162 1131 166.482 1131H172.962C173.314 1131 173.602 1130.89 173.826 1130.67C174.082 1130.44 174.21 1130.15 174.21 1129.8V1119.29H179.922C184.05 1119.29 187.282 1118.39 189.618 1116.6C191.954 1114.78 193.122 1112.07 193.122 1108.49C193.122 1104.87 191.938 1102.12 189.57 1100.23C187.234 1098.35 184.018 1097.4 179.922 1097.4H166.482C166.162 1097.4 165.874 1097.51 165.618 1097.74C165.394 1097.96 165.282 1098.25 165.282 1098.6V1129.8C165.282 1130.12 165.394 1130.41 165.618 1130.67ZM182.994 1111.61C182.194 1112.31 181.09 1112.67 179.682 1112.67H174.066V1104.07H179.682C181.186 1104.07 182.306 1104.47 183.042 1105.27C183.81 1106.04 184.194 1107.08 184.194 1108.39C184.194 1109.8 183.794 1110.87 182.994 1111.61ZM198.055 1130.67C198.312 1130.89 198.6 1131 198.919 1131H205.111C205.208 1131 205.3 1130.99 205.387 1130.98C205.46 1130.96 205.53 1130.94 205.596 1130.92C205.738 1130.86 205.865 1130.78 205.976 1130.67C206.231 1130.44 206.359 1130.15 206.359 1129.8V1119.15H211.255L216.728 1129.71C217.111 1130.57 217.768 1131 218.695 1131H225.08C225.335 1131 225.56 1130.91 225.751 1130.71C225.888 1130.58 225.982 1130.44 226.036 1130.29C226.052 1130.24 226.065 1130.19 226.074 1130.15C226.083 1130.1 226.087 1130.05 226.087 1129.99C226.087 1129.88 226.065 1129.77 226.021 1129.65C226 1129.59 225.974 1129.53 225.943 1129.47L219.367 1117.66C221.223 1116.83 222.679 1115.63 223.735 1114.06C224.792 1112.49 225.319 1110.59 225.319 1108.35C225.319 1104.86 224.135 1102.17 221.768 1100.28C219.431 1098.36 216.167 1097.4 211.976 1097.4H198.919C198.6 1097.4 198.312 1097.51 198.055 1097.74C197.832 1097.96 197.719 1098.25 197.719 1098.6V1129.8C197.719 1130.12 197.832 1130.41 198.055 1130.67ZM215.239 1111.27C214.471 1111.98 213.352 1112.33 211.879 1112.33H206.359V1104.07H211.879C213.383 1104.07 214.503 1104.46 215.239 1105.23C216.007 1105.96 216.392 1106.97 216.392 1108.25C216.392 1109.53 216.007 1110.54 215.239 1111.27ZM233.838 1128.17C236.43 1130.38 239.982 1131.48 244.494 1131.48C249.006 1131.48 252.558 1130.38 255.15 1128.17C257.742 1125.96 259.118 1122.71 259.278 1118.43C259.342 1116.57 259.374 1115.19 259.374 1114.3C259.374 1113.37 259.342 1111.98 259.278 1110.12C259.15 1105.9 257.758 1102.65 255.102 1100.38C252.446 1098.07 248.91 1096.92 244.494 1096.92C240.078 1096.92 236.542 1098.07 233.886 1100.38C231.262 1102.65 229.87 1105.9 229.71 1110.12C229.678 1111.05 229.662 1112.44 229.662 1114.3C229.662 1116.12 229.678 1117.5 229.71 1118.43C229.87 1122.71 231.246 1125.96 233.838 1128.17ZM248.67 1122.99C247.646 1124.04 246.254 1124.57 244.494 1124.57C242.734 1124.57 241.342 1124.04 240.318 1122.99C239.294 1121.93 238.734 1120.31 238.638 1118.14C238.606 1117.21 238.59 1115.9 238.59 1114.2C238.59 1112.47 238.606 1111.16 238.638 1110.27C238.734 1108.09 239.294 1106.47 240.318 1105.42C241.374 1104.36 242.766 1103.83 244.494 1103.83C246.222 1103.83 247.614 1104.36 248.67 1105.42C249.726 1106.47 250.286 1108.09 250.35 1110.27C250.379 1111.09 250.402 1111.82 250.418 1112.44C250.437 1113.17 250.446 1113.75 250.446 1114.2C250.446 1114.97 250.414 1116.28 250.35 1118.14C250.286 1120.31 249.726 1121.93 248.67 1122.99ZM269.642 1130.14C271.818 1131.03 274.426 1131.48 277.466 1131.48C280.282 1131.48 282.778 1131.07 284.954 1130.23C287.162 1129.37 288.874 1128.15 290.09 1126.59C291.338 1124.99 291.962 1123.11 291.962 1120.97C291.962 1119.02 291.546 1117.4 290.714 1116.12C289.882 1114.81 288.57 1113.75 286.778 1112.95C285.018 1112.12 282.65 1111.43 279.674 1110.89C277.85 1110.51 276.442 1110.14 275.45 1109.79C275.192 1109.68 274.952 1109.58 274.731 1109.47C274.494 1109.35 274.277 1109.23 274.083 1109.11C273.784 1108.93 273.536 1108.74 273.338 1108.54C272.922 1108.09 272.714 1107.53 272.714 1106.86C272.714 1105.87 273.098 1105.11 273.866 1104.6C274.634 1104.09 275.738 1103.83 277.178 1103.83C278.426 1103.83 279.466 1104.09 280.298 1104.6C281.162 1105.11 281.69 1105.74 281.882 1106.47C281.978 1106.62 282.077 1106.74 282.18 1106.84C282.285 1106.95 282.394 1107.03 282.506 1107.1C282.762 1107.23 283.082 1107.29 283.466 1107.29H289.802C290.09 1107.29 290.33 1107.19 290.522 1107C290.714 1106.81 290.81 1106.57 290.81 1106.28C290.746 1104.87 290.17 1103.45 289.082 1102.01C288.026 1100.54 286.474 1099.32 284.426 1098.36C282.378 1097.4 279.962 1096.92 277.178 1096.92C274.49 1096.92 272.138 1097.35 270.122 1098.22C268.106 1099.08 266.554 1100.28 265.466 1101.82C264.378 1103.35 263.834 1105.1 263.834 1107.05C263.834 1109.93 264.778 1112.15 266.666 1113.72C268.586 1115.26 271.466 1116.43 275.306 1117.23C277.386 1117.67 278.954 1118.07 280.01 1118.43C281.066 1118.78 281.834 1119.18 282.314 1119.63C282.826 1120.07 283.082 1120.65 283.082 1121.35C283.082 1122.35 282.602 1123.13 281.642 1123.71C280.682 1124.28 279.29 1124.57 277.466 1124.57C275.93 1124.57 274.698 1124.3 273.77 1123.75C272.842 1123.21 272.17 1122.52 271.754 1121.69C271.498 1121.4 271.242 1121.19 270.986 1121.07C270.907 1121.01 270.817 1120.96 270.717 1120.92C270.536 1120.86 270.322 1120.83 270.074 1120.83H264.026C263.738 1120.83 263.482 1120.94 263.258 1121.16C263.066 1121.35 262.97 1121.58 262.97 1121.83C263.034 1123.56 263.61 1125.16 264.698 1126.63C265.818 1128.07 267.466 1129.24 269.642 1130.14ZM297.102 1130.67C297.358 1130.89 297.646 1131 297.966 1131H320.766C320.925 1131 321.071 1130.98 321.204 1130.93C321.297 1130.9 321.385 1130.86 321.465 1130.8C321.524 1130.76 321.579 1130.72 321.63 1130.67C321.854 1130.41 321.966 1130.12 321.966 1129.8V1125.29C321.966 1125.09 321.931 1124.91 321.86 1124.76C321.835 1124.7 321.806 1124.65 321.771 1124.6C321.731 1124.54 321.684 1124.48 321.63 1124.43C321.517 1124.31 321.387 1124.23 321.241 1124.17C321.098 1124.12 320.94 1124.09 320.766 1124.09H305.07V1117.42H319.326C319.678 1117.42 319.966 1117.31 320.19 1117.08C320.414 1116.83 320.526 1116.54 320.526 1116.22V1112.04C320.526 1111.69 320.414 1111.4 320.19 1111.18C319.966 1110.92 319.678 1110.79 319.326 1110.79H305.07V1104.31H320.382C320.734 1104.31 321.022 1104.2 321.246 1103.98C321.297 1103.92 321.343 1103.86 321.382 1103.8C321.422 1103.73 321.456 1103.67 321.483 1103.61C321.549 1103.45 321.582 1103.29 321.582 1103.11V1098.6C321.582 1098.41 321.55 1098.24 321.485 1098.09C321.429 1097.96 321.35 1097.84 321.246 1097.74C321.022 1097.51 320.734 1097.4 320.382 1097.4H297.966C297.646 1097.4 297.358 1097.51 297.102 1097.74C296.878 1097.96 296.766 1098.25 296.766 1098.6V1129.8C296.766 1130.12 296.878 1130.41 297.102 1130.67ZM330.165 1128.17C332.757 1130.38 336.341 1131.48 340.917 1131.48C343.733 1131.48 346.261 1131.02 348.501 1130.09C350.741 1129.13 352.501 1127.79 353.781 1126.06C355.093 1124.3 355.765 1122.25 355.797 1119.91C355.829 1119.63 355.733 1119.39 355.509 1119.19C355.317 1119 355.077 1118.91 354.789 1118.91H348.309C347.861 1118.91 347.525 1119 347.301 1119.19C347.077 1119.35 346.901 1119.67 346.773 1120.15C346.389 1121.72 345.701 1122.86 344.709 1123.56C343.717 1124.23 342.437 1124.57 340.869 1124.57C337.093 1124.57 335.141 1122.46 335.013 1118.23C334.996 1117.73 334.983 1117.09 334.975 1116.32C334.969 1115.69 334.965 1114.96 334.965 1114.15C334.965 1112.36 334.981 1111.03 335.013 1110.17C335.141 1105.95 337.093 1103.83 340.869 1103.83C342.437 1103.83 343.701 1104.17 344.661 1104.84C345.621 1105.48 346.325 1106.62 346.773 1108.25C346.933 1108.73 347.125 1109.07 347.349 1109.26C347.573 1109.42 347.893 1109.5 348.309 1109.5H354.789C355.045 1109.5 355.269 1109.42 355.461 1109.26C355.685 1109.07 355.797 1108.84 355.797 1108.59V1108.49C355.765 1106.15 355.093 1104.12 353.781 1102.39C352.501 1100.63 350.741 1099.29 348.501 1098.36C346.261 1097.4 343.733 1096.92 340.917 1096.92C336.437 1096.92 332.885 1098.06 330.261 1100.33C327.637 1102.57 326.245 1105.77 326.085 1109.93C326.053 1110.83 326.037 1112.27 326.037 1114.25C326.037 1116.2 326.053 1117.61 326.085 1118.47C326.245 1122.7 327.605 1125.93 330.165 1128.17ZM364.348 1128.17C366.908 1130.38 370.444 1131.48 374.957 1131.48C379.404 1131.48 382.893 1130.38 385.42 1128.17C387.98 1125.96 389.26 1122.63 389.26 1118.19V1098.6C389.26 1098.33 389.195 1098.1 389.065 1097.91C389.05 1097.89 389.035 1097.86 389.019 1097.84C389.003 1097.82 388.988 1097.81 388.972 1097.79C388.957 1097.77 388.941 1097.75 388.924 1097.74C388.7 1097.51 388.413 1097.4 388.061 1097.4H381.82C381.5 1097.4 381.212 1097.51 380.957 1097.74C380.732 1097.96 380.621 1098.25 380.621 1098.6V1118.14C380.621 1120.19 380.125 1121.74 379.132 1122.79C378.14 1123.85 376.732 1124.38 374.908 1124.38C373.052 1124.38 371.628 1123.87 370.636 1122.84C369.676 1121.79 369.196 1120.22 369.196 1118.14V1098.6C369.196 1098.25 369.068 1097.96 368.812 1097.74C368.588 1097.51 368.3 1097.4 367.948 1097.4H361.756C361.437 1097.4 361.148 1097.51 360.893 1097.74C360.752 1097.88 360.655 1098.04 360.603 1098.23C360.572 1098.35 360.556 1098.47 360.556 1098.6V1118.19C360.556 1122.63 361.82 1125.96 364.348 1128.17ZM403.354 1130.67C403.61 1130.89 403.897 1131 404.218 1131H410.554C410.73 1131 410.891 1130.97 411.035 1130.92C411.179 1130.86 411.306 1130.78 411.417 1130.67C411.557 1130.51 411.653 1130.33 411.706 1130.15C411.738 1130.04 411.753 1129.92 411.753 1129.8V1104.94H420.298C420.436 1104.94 420.564 1104.92 420.683 1104.89C420.772 1104.86 420.856 1104.82 420.934 1104.78C421.016 1104.73 421.092 1104.67 421.162 1104.6C421.386 1104.38 421.498 1104.09 421.498 1103.74V1098.6C421.498 1098.25 421.386 1097.96 421.162 1097.74C420.938 1097.51 420.649 1097.4 420.298 1097.4H394.474C394.313 1097.4 394.161 1097.43 394.017 1097.49C393.873 1097.54 393.738 1097.63 393.61 1097.74C393.496 1097.85 393.411 1097.98 393.355 1098.13C393.301 1098.27 393.273 1098.43 393.273 1098.6V1103.74C393.273 1104.06 393.386 1104.35 393.61 1104.6C393.721 1104.7 393.838 1104.77 393.961 1104.83C394.122 1104.9 394.292 1104.94 394.474 1104.94H403.018V1129.8C403.018 1130.12 403.129 1130.41 403.354 1130.67ZM426.667 1130.94C426.792 1130.98 426.923 1131 427.06 1131H449.86C450.212 1131 450.5 1130.89 450.724 1130.67C450.948 1130.41 451.06 1130.12 451.06 1129.8V1125.29C451.06 1125.07 451.016 1124.87 450.928 1124.7C450.875 1124.6 450.808 1124.51 450.724 1124.43C450.5 1124.2 450.212 1124.09 449.86 1124.09H434.164V1117.42H448.42C448.772 1117.42 449.06 1117.31 449.284 1117.08C449.508 1116.83 449.62 1116.54 449.62 1116.22V1112.04C449.62 1111.96 449.614 1111.88 449.602 1111.8C449.586 1111.71 449.56 1111.62 449.523 1111.53C449.468 1111.4 449.388 1111.28 449.284 1111.18C449.06 1110.92 448.772 1110.79 448.42 1110.79H434.164V1104.31H449.476C449.828 1104.31 450.116 1104.2 450.34 1103.98C450.564 1103.72 450.676 1103.43 450.676 1103.11V1098.6C450.676 1098.25 450.564 1097.96 450.34 1097.74C450.116 1097.51 449.828 1097.4 449.476 1097.4H427.06C426.893 1097.4 426.734 1097.43 426.584 1097.49C426.512 1097.52 426.443 1097.56 426.375 1097.6C426.313 1097.64 426.254 1097.69 426.196 1097.74C426.114 1097.82 426.046 1097.91 425.994 1098.01C425.953 1098.09 425.922 1098.17 425.899 1098.26C425.873 1098.37 425.86 1098.48 425.86 1098.6V1129.8C425.86 1130.12 425.972 1130.41 426.196 1130.67C426.342 1130.79 426.499 1130.88 426.667 1130.94ZM456.852 1130.67C457.108 1130.89 457.396 1131 457.716 1131H470.436C475.172 1131 478.772 1129.93 481.236 1127.79C483.732 1125.61 485.06 1122.3 485.22 1117.85C485.252 1116.95 485.268 1115.74 485.268 1114.2C485.268 1112.67 485.252 1111.43 485.22 1110.51C485.092 1106.25 483.732 1103 481.14 1100.76C478.548 1098.52 474.9 1097.4 470.196 1097.4H457.716C457.396 1097.4 457.108 1097.51 456.852 1097.74C456.628 1097.96 456.516 1098.25 456.516 1098.6V1129.8C456.516 1130.12 456.628 1130.41 456.852 1130.67ZM474.852 1122.6C473.86 1123.59 472.308 1124.09 470.196 1124.09H465.156V1104.31H469.956C472.068 1104.31 473.652 1104.83 474.708 1105.85C475.796 1106.87 476.372 1108.46 476.436 1110.6C476.5 1111.5 476.532 1112.68 476.532 1114.15C476.532 1115.63 476.5 1116.83 476.436 1117.75C476.372 1119.96 475.844 1121.58 474.852 1122.6ZM507.697 1130.67C507.954 1130.89 508.241 1131 508.562 1131H514.897C515.25 1131 515.538 1130.89 515.761 1130.67C515.985 1130.41 516.097 1130.12 516.097 1129.8V1104.94H524.642C524.993 1104.94 525.281 1104.83 525.505 1104.6C525.729 1104.38 525.841 1104.09 525.841 1103.74V1098.6C525.841 1098.25 525.729 1097.96 525.505 1097.74C525.281 1097.51 524.993 1097.4 524.642 1097.4H498.817C498.498 1097.4 498.209 1097.51 497.954 1097.74C497.729 1097.96 497.617 1098.25 497.617 1098.6V1103.74C497.617 1104.06 497.729 1104.35 497.954 1104.6C498.209 1104.83 498.498 1104.94 498.817 1104.94H507.361V1129.8C507.361 1129.87 507.367 1129.94 507.379 1130.01C507.393 1130.1 507.415 1130.18 507.445 1130.26C507.47 1130.32 507.501 1130.38 507.538 1130.45C507.583 1130.52 507.636 1130.59 507.697 1130.67ZM532.76 1128.17C535.352 1130.38 538.904 1131.48 543.416 1131.48C547.928 1131.48 551.48 1130.38 554.072 1128.17C556.664 1125.96 558.04 1122.71 558.2 1118.43C558.264 1116.57 558.296 1115.19 558.296 1114.3C558.296 1113.37 558.264 1111.98 558.2 1110.12C558.072 1105.9 556.68 1102.65 554.024 1100.38C551.368 1098.07 547.832 1096.92 543.416 1096.92C539 1096.92 535.464 1098.07 532.808 1100.38C530.184 1102.65 528.792 1105.9 528.632 1110.12C528.6 1111.05 528.584 1112.44 528.584 1114.3C528.584 1116.12 528.6 1117.5 528.632 1118.43C528.792 1122.71 530.168 1125.96 532.76 1128.17ZM547.592 1122.99C546.568 1124.04 545.176 1124.57 543.416 1124.57C541.656 1124.57 540.264 1124.04 539.24 1122.99C538.216 1121.93 537.656 1120.31 537.56 1118.14C537.547 1117.75 537.537 1117.3 537.529 1116.79C537.518 1116.06 537.512 1115.2 537.512 1114.2C537.512 1112.47 537.528 1111.16 537.56 1110.27C537.656 1108.09 538.216 1106.47 539.24 1105.42C540.296 1104.36 541.688 1103.83 543.416 1103.83C545.144 1103.83 546.536 1104.36 547.592 1105.42C548.648 1106.47 549.208 1108.09 549.272 1110.27C549.336 1112.06 549.368 1113.37 549.368 1114.2C549.368 1114.97 549.336 1116.28 549.272 1118.14C549.208 1120.31 548.648 1121.93 547.592 1122.99ZM580.682 1130.67C580.858 1130.82 581.049 1130.92 581.255 1130.97C581.349 1130.99 581.446 1131 581.546 1131H587.882C588.044 1131 588.192 1130.98 588.327 1130.93C588.485 1130.87 588.625 1130.79 588.746 1130.67C588.839 1130.56 588.913 1130.45 588.967 1130.33C589.043 1130.16 589.082 1129.99 589.082 1129.8V1104.94H597.626C597.978 1104.94 598.266 1104.83 598.49 1104.6C598.714 1104.38 598.826 1104.09 598.826 1103.74V1098.6C598.826 1098.25 598.714 1097.96 598.49 1097.74C598.266 1097.51 597.978 1097.4 597.626 1097.4H571.802C571.622 1097.4 571.453 1097.44 571.293 1097.51C571.267 1097.52 571.242 1097.53 571.216 1097.54C571.12 1097.6 571.027 1097.66 570.938 1097.74C570.826 1097.85 570.742 1097.98 570.686 1098.12C570.63 1098.26 570.602 1098.42 570.602 1098.6V1103.74C570.602 1104.06 570.714 1104.35 570.938 1104.6C571.087 1104.73 571.248 1104.82 571.419 1104.88C571.491 1104.9 571.564 1104.92 571.64 1104.93C571.692 1104.93 571.747 1104.94 571.802 1104.94H580.346V1129.8C580.346 1130.12 580.458 1130.41 580.682 1130.67ZM603.524 1130.67C603.639 1130.78 603.77 1130.87 603.918 1130.92C604.06 1130.97 604.216 1131 604.388 1131H610.58C610.932 1131 611.22 1130.89 611.444 1130.67C611.7 1130.44 611.828 1130.15 611.828 1129.8V1117.85H623.636V1129.8C623.636 1130.15 623.748 1130.44 623.972 1130.67C624.196 1130.89 624.484 1131 624.836 1131H631.028C631.132 1131 631.23 1130.99 631.323 1130.97C631.544 1130.93 631.734 1130.82 631.892 1130.67C632.008 1130.55 632.094 1130.42 632.149 1130.27C632.202 1130.13 632.228 1129.97 632.228 1129.8V1098.6C632.228 1098.37 632.179 1098.16 632.08 1097.98C632.03 1097.89 631.967 1097.81 631.892 1097.74C631.668 1097.51 631.38 1097.4 631.028 1097.4H624.836C624.591 1097.4 624.377 1097.46 624.194 1097.56C624.115 1097.61 624.041 1097.67 623.972 1097.74C623.748 1097.96 623.636 1098.25 623.636 1098.6V1110.17H611.828V1098.6C611.828 1098.25 611.7 1097.96 611.444 1097.74C611.22 1097.51 610.932 1097.4 610.58 1097.4H604.388C604.199 1097.4 604.02 1097.44 603.853 1097.52C603.793 1097.55 603.735 1097.58 603.678 1097.62C603.625 1097.65 603.574 1097.69 603.524 1097.74C603.3 1097.96 603.188 1098.25 603.188 1098.6V1129.8C603.188 1130.15 603.3 1130.44 603.524 1130.67ZM639.29 1130.67C639.431 1130.79 639.583 1130.88 639.743 1130.93C639.874 1130.98 640.01 1131 640.154 1131H662.954C663.127 1131 663.286 1130.97 663.428 1130.92C663.575 1130.86 663.705 1130.78 663.818 1130.67C664.042 1130.41 664.154 1130.12 664.154 1129.8V1125.29C664.154 1124.94 664.042 1124.65 663.818 1124.43C663.732 1124.34 663.637 1124.27 663.532 1124.22C663.428 1124.16 663.314 1124.13 663.192 1124.11C663.116 1124.1 663.037 1124.09 662.954 1124.09H647.258V1117.42H661.514C661.866 1117.42 662.154 1117.31 662.378 1117.08C662.493 1116.95 662.579 1116.81 662.635 1116.66C662.688 1116.52 662.714 1116.37 662.714 1116.22V1112.04C662.714 1111.69 662.602 1111.4 662.378 1111.18C662.265 1111.05 662.136 1110.95 661.99 1110.89C661.847 1110.82 661.688 1110.79 661.514 1110.79H647.258V1104.31H662.57C662.922 1104.31 663.21 1104.2 663.434 1103.98C663.534 1103.86 663.611 1103.74 663.667 1103.61C663.735 1103.46 663.77 1103.29 663.77 1103.11V1098.6C663.77 1098.36 663.718 1098.15 663.614 1097.97C663.598 1097.94 663.58 1097.92 663.562 1097.89C663.524 1097.84 663.481 1097.79 663.434 1097.74C663.21 1097.51 662.922 1097.4 662.57 1097.4H640.154C639.834 1097.4 639.546 1097.51 639.29 1097.74C639.066 1097.96 638.954 1098.25 638.954 1098.6V1129.8C638.954 1130.12 639.066 1130.41 639.29 1130.67ZM680.165 1130.67C680.421 1130.89 680.709 1131 681.029 1131H687.077C687.429 1131 687.717 1130.89 687.941 1130.67C688.165 1130.44 688.277 1130.15 688.277 1129.8V1118.95H702.149C702.501 1118.95 702.789 1118.84 703.013 1118.62C703.059 1118.56 703.101 1118.51 703.138 1118.45C703.194 1118.37 703.239 1118.28 703.272 1118.19C703.302 1118.11 703.323 1118.03 703.335 1117.94C703.344 1117.88 703.349 1117.82 703.349 1117.75V1112.95C703.349 1112.6 703.237 1112.31 703.013 1112.09C702.789 1111.83 702.501 1111.71 702.149 1111.71H688.277V1104.65H703.109C703.461 1104.65 703.749 1104.54 703.973 1104.31C704.197 1104.06 704.309 1103.77 704.309 1103.45V1098.6C704.309 1098.4 704.272 1098.22 704.199 1098.06C704.144 1097.94 704.069 1097.83 703.973 1097.74C703.875 1097.64 703.764 1097.56 703.642 1097.51C703.484 1097.44 703.307 1097.4 703.109 1097.4H681.029C680.709 1097.4 680.421 1097.51 680.165 1097.74C679.941 1097.96 679.829 1098.25 679.829 1098.6V1129.8C679.829 1130.12 679.941 1130.41 680.165 1130.67ZM713.004 1128.17C715.564 1130.38 719.101 1131.48 723.613 1131.48C728.061 1131.48 731.549 1130.38 734.077 1128.17C736.637 1125.96 737.917 1122.63 737.917 1118.19V1098.6C737.917 1098.25 737.805 1097.96 737.581 1097.74C737.356 1097.51 737.069 1097.4 736.717 1097.4H730.477C730.157 1097.4 729.869 1097.51 729.613 1097.74C729.389 1097.96 729.277 1098.25 729.277 1098.6V1118.14C729.277 1120.19 728.781 1121.74 727.789 1122.79C726.796 1123.85 725.389 1124.38 723.564 1124.38C721.708 1124.38 720.285 1123.87 719.292 1122.84C718.333 1121.79 717.853 1120.22 717.853 1118.14V1098.6C717.853 1098.25 717.725 1097.96 717.469 1097.74C717.245 1097.51 716.957 1097.4 716.604 1097.4H710.413C710.093 1097.4 709.805 1097.51 709.549 1097.74C709.426 1097.86 709.337 1098 709.282 1098.16C709.235 1098.29 709.212 1098.44 709.212 1098.6V1118.19C709.212 1122.63 710.477 1125.96 713.004 1128.17ZM744.618 1130.67C744.874 1130.89 745.162 1131 745.482 1131H767.562C767.731 1131 767.885 1130.98 768.024 1130.92C768.093 1130.9 768.159 1130.87 768.221 1130.83C768.294 1130.78 768.363 1130.73 768.426 1130.67C768.65 1130.41 768.762 1130.12 768.762 1129.8V1125C768.762 1124.9 768.753 1124.81 768.735 1124.72C768.724 1124.66 768.708 1124.6 768.687 1124.55C768.631 1124.39 768.544 1124.26 768.426 1124.14C768.202 1123.88 767.914 1123.75 767.562 1123.75H753.018V1098.6C753.018 1098.25 752.906 1097.96 752.682 1097.74C752.458 1097.51 752.17 1097.4 751.818 1097.4H745.482C745.323 1097.4 745.172 1097.43 745.029 1097.48C744.962 1097.51 744.897 1097.54 744.834 1097.58C744.76 1097.62 744.688 1097.68 744.618 1097.74C744.394 1097.96 744.282 1098.25 744.282 1098.6V1129.8C744.282 1130.12 744.394 1130.41 744.618 1130.67ZM773.258 1130.67C773.4 1130.79 773.551 1130.88 773.712 1130.93C773.843 1130.98 773.979 1131 774.123 1131H796.203C796.555 1131 796.842 1130.89 797.066 1130.67C797.125 1130.6 797.176 1130.53 797.219 1130.46C797.341 1130.26 797.402 1130.04 797.402 1129.8V1125C797.402 1124.65 797.291 1124.36 797.066 1124.14C796.842 1123.88 796.555 1123.75 796.203 1123.75H781.659V1098.6C781.659 1098.25 781.546 1097.96 781.322 1097.74C781.099 1097.51 780.811 1097.4 780.458 1097.4H774.123C774.032 1097.4 773.945 1097.41 773.86 1097.43C773.767 1097.45 773.677 1097.48 773.591 1097.52C773.475 1097.57 773.364 1097.65 773.258 1097.74C773.035 1097.96 772.922 1098.25 772.922 1098.6V1129.8C772.922 1130.12 773.035 1130.41 773.258 1130.67ZM243.641 1187.67C243.732 1187.74 243.827 1187.81 243.925 1187.86C244.105 1187.95 244.299 1188 244.505 1188H267.305C267.657 1188 267.945 1187.89 268.169 1187.67C268.228 1187.6 268.279 1187.53 268.322 1187.46C268.365 1187.39 268.4 1187.31 268.428 1187.24C268.479 1187.1 268.505 1186.95 268.505 1186.8V1182.29C268.505 1181.94 268.394 1181.65 268.169 1181.43C267.945 1181.2 267.657 1181.09 267.305 1181.09H251.609V1174.42H265.865C266.217 1174.42 266.505 1174.31 266.729 1174.08C266.953 1173.83 267.065 1173.54 267.065 1173.22V1169.04C267.065 1168.69 266.953 1168.4 266.729 1168.18C266.505 1167.92 266.217 1167.79 265.865 1167.79H251.609V1161.31H266.921C267.053 1161.31 267.175 1161.3 267.289 1161.27C267.479 1161.21 267.645 1161.12 267.785 1160.98C268.009 1160.72 268.121 1160.43 268.121 1160.11V1155.6C268.121 1155.25 268.009 1154.96 267.785 1154.74C267.562 1154.51 267.273 1154.4 266.921 1154.4H244.505C244.321 1154.4 244.147 1154.44 243.984 1154.51C243.917 1154.54 243.852 1154.58 243.788 1154.62C243.738 1154.66 243.689 1154.7 243.641 1154.74C243.417 1154.96 243.305 1155.25 243.305 1155.6V1186.8C243.305 1187.12 243.417 1187.41 243.641 1187.67ZM271.417 1187.71C271.642 1187.91 271.897 1188 272.186 1188H279.098C279.833 1188 280.377 1187.68 280.729 1187.04L287.018 1177.83L293.354 1187.04C293.802 1187.68 294.361 1188 295.034 1188H302.186C302.474 1188 302.713 1187.91 302.906 1187.71C303.098 1187.49 303.193 1187.25 303.193 1186.99C303.193 1186.74 303.146 1186.55 303.05 1186.42L292.49 1170.82L302.233 1155.99C302.298 1155.9 302.346 1155.82 302.378 1155.72C302.41 1155.62 302.426 1155.52 302.426 1155.41C302.426 1155.29 302.402 1155.18 302.354 1155.08C302.298 1154.95 302.21 1154.84 302.089 1154.74C301.897 1154.51 301.673 1154.4 301.417 1154.4H294.793C294.089 1154.4 293.53 1154.74 293.114 1155.41L287.306 1164.1L281.594 1155.41C281.506 1155.3 281.415 1155.19 281.322 1155.09C281.178 1154.94 281.029 1154.81 280.874 1154.69C280.618 1154.5 280.297 1154.4 279.914 1154.4H272.954C272.666 1154.4 272.426 1154.51 272.233 1154.74C272.118 1154.85 272.037 1154.98 271.991 1155.12C271.961 1155.21 271.946 1155.31 271.946 1155.41C271.946 1155.6 271.994 1155.79 272.089 1155.99L281.786 1170.87L271.322 1186.42C271.193 1186.58 271.129 1186.77 271.129 1186.99C271.129 1187.12 271.152 1187.24 271.198 1187.36C271.246 1187.48 271.319 1187.6 271.417 1187.71ZM314.963 1187.77C315.014 1187.8 315.065 1187.84 315.118 1187.86C315.297 1187.96 315.489 1188 315.694 1188H322.03C322.137 1188 322.237 1187.99 322.332 1187.97C322.428 1187.95 322.518 1187.92 322.602 1187.88C322.709 1187.82 322.807 1187.75 322.894 1187.67C322.974 1187.57 323.04 1187.48 323.091 1187.38C323.113 1187.34 323.132 1187.29 323.148 1187.25C323.203 1187.11 323.23 1186.96 323.23 1186.8V1161.94H331.774C332.126 1161.94 332.414 1161.83 332.638 1161.6C332.862 1161.38 332.974 1161.09 332.974 1160.74V1155.6C332.974 1155.39 332.934 1155.2 332.852 1155.03C332.798 1154.92 332.727 1154.83 332.638 1154.74C332.414 1154.51 332.126 1154.4 331.774 1154.4H305.95C305.775 1154.4 305.61 1154.43 305.454 1154.5C305.325 1154.56 305.203 1154.64 305.086 1154.74C304.862 1154.96 304.75 1155.25 304.75 1155.6V1160.74C304.75 1161.06 304.862 1161.35 305.086 1161.6C305.342 1161.83 305.63 1161.94 305.95 1161.94H314.494V1186.8C314.494 1187.12 314.606 1187.41 314.83 1187.67C314.874 1187.7 314.918 1187.74 314.963 1187.77ZM337.672 1187.67C337.929 1187.89 338.217 1188 338.537 1188H361.336C361.472 1188 361.598 1187.98 361.715 1187.95C361.808 1187.92 361.895 1187.89 361.976 1187.84C362.057 1187.79 362.132 1187.73 362.201 1187.67C362.425 1187.41 362.537 1187.12 362.537 1186.8V1182.29C362.537 1182.04 362.481 1181.82 362.369 1181.64C362.323 1181.56 362.267 1181.49 362.201 1181.43C361.977 1181.2 361.688 1181.09 361.336 1181.09H345.641V1174.42H359.896C360.249 1174.42 360.537 1174.31 360.761 1174.08C360.984 1173.83 361.097 1173.54 361.097 1173.22V1169.04C361.097 1168.69 360.984 1168.4 360.761 1168.18C360.537 1167.92 360.249 1167.79 359.896 1167.79H345.641V1161.31H360.953C361.305 1161.31 361.593 1161.2 361.816 1160.98C362.041 1160.72 362.152 1160.43 362.152 1160.11V1155.6C362.152 1155.43 362.125 1155.27 362.072 1155.13C362.017 1154.98 361.932 1154.85 361.816 1154.74C361.711 1154.63 361.591 1154.55 361.457 1154.49C361.355 1154.45 361.245 1154.42 361.126 1154.41C361.07 1154.4 361.012 1154.4 360.953 1154.4H338.537C338.217 1154.4 337.929 1154.51 337.672 1154.74C337.449 1154.96 337.336 1155.25 337.336 1155.6V1186.8C337.336 1187.12 337.449 1187.41 337.672 1187.67ZM368.491 1187.79C368.529 1187.81 368.567 1187.84 368.606 1187.86C368.788 1187.95 368.984 1188 369.193 1188H374.953C375.305 1188 375.593 1187.89 375.817 1187.67C376.041 1187.41 376.153 1187.12 376.153 1186.8V1169.33L387.865 1187.09C388.217 1187.7 388.745 1188 389.449 1188H394.585C394.937 1188 395.225 1187.89 395.449 1187.67C395.51 1187.6 395.563 1187.52 395.607 1187.44C395.632 1187.4 395.655 1187.36 395.674 1187.31C395.719 1187.21 395.75 1187.1 395.767 1186.99C395.779 1186.91 395.785 1186.83 395.785 1186.75V1155.6C395.785 1155.25 395.673 1154.96 395.449 1154.74C395.29 1154.58 395.1 1154.48 394.877 1154.43C394.843 1154.42 394.809 1154.42 394.773 1154.41C394.712 1154.4 394.65 1154.4 394.585 1154.4H388.825C388.581 1154.4 388.356 1154.47 388.15 1154.6C388.085 1154.64 388.022 1154.68 387.961 1154.74C387.937 1154.76 387.914 1154.79 387.892 1154.81C387.844 1154.87 387.802 1154.93 387.767 1155C387.725 1155.07 387.692 1155.16 387.668 1155.25C387.64 1155.36 387.625 1155.47 387.625 1155.6V1173.75L375.913 1155.31C375.625 1154.71 375.081 1154.4 374.281 1154.4H369.193C369.141 1154.4 369.09 1154.4 369.04 1154.41C368.936 1154.42 368.835 1154.45 368.738 1154.48C368.594 1154.54 368.457 1154.62 368.329 1154.74C368.105 1154.96 367.993 1155.25 367.993 1155.6V1186.8C367.993 1187.12 368.105 1187.41 368.329 1187.67C368.381 1187.71 368.436 1187.75 368.491 1187.79ZM410.221 1187.67C410.324 1187.76 410.432 1187.83 410.545 1187.88C410.714 1187.96 410.894 1188 411.085 1188H417.421C417.773 1188 418.061 1187.89 418.285 1187.67C418.4 1187.53 418.486 1187.39 418.542 1187.24C418.594 1187.1 418.621 1186.96 418.621 1186.8V1161.94H427.165C427.232 1161.94 427.297 1161.93 427.359 1161.93C427.428 1161.92 427.493 1161.9 427.556 1161.88C427.736 1161.83 427.894 1161.74 428.029 1161.6C428.104 1161.53 428.166 1161.44 428.215 1161.36C428.271 1161.26 428.312 1161.15 428.336 1161.03C428.355 1160.94 428.365 1160.84 428.365 1160.74V1155.6C428.365 1155.25 428.253 1154.96 428.029 1154.74C427.805 1154.51 427.517 1154.4 427.165 1154.4H401.341C401.021 1154.4 400.733 1154.51 400.477 1154.74C400.321 1154.89 400.219 1155.08 400.172 1155.3C400.151 1155.39 400.141 1155.49 400.141 1155.6V1160.74C400.141 1161.06 400.253 1161.35 400.477 1161.6C400.733 1161.83 401.021 1161.94 401.341 1161.94H409.885V1186.8C409.885 1187.12 409.997 1187.41 410.221 1187.67ZM444.893 1185.17C447.485 1187.38 451.037 1188.48 455.549 1188.48C460.061 1188.48 463.613 1187.38 466.205 1185.17C468.797 1182.96 470.173 1179.71 470.333 1175.43C470.374 1174.23 470.402 1173.23 470.417 1172.43C470.425 1171.99 470.429 1171.62 470.429 1171.3C470.429 1170.37 470.397 1168.98 470.333 1167.12C470.205 1162.9 468.813 1159.65 466.157 1157.38C463.501 1155.07 459.965 1153.92 455.549 1153.92C451.133 1153.92 447.597 1155.07 444.941 1157.38C442.317 1159.65 440.925 1162.9 440.765 1167.12C440.733 1168.05 440.717 1169.44 440.717 1171.3C440.717 1173.12 440.733 1174.5 440.765 1175.43C440.925 1179.71 442.301 1182.96 444.893 1185.17ZM459.725 1179.99C458.701 1181.04 457.309 1181.57 455.549 1181.57C453.789 1181.57 452.397 1181.04 451.373 1179.99C450.349 1178.93 449.789 1177.31 449.693 1175.14C449.661 1174.21 449.645 1172.9 449.645 1171.2C449.645 1169.47 449.661 1168.16 449.693 1167.27C449.789 1165.09 450.349 1163.47 451.373 1162.42C452.429 1161.36 453.821 1160.83 455.549 1160.83C457.277 1160.83 458.669 1161.36 459.725 1162.42C460.781 1163.47 461.341 1165.09 461.405 1167.27C461.469 1169.06 461.501 1170.37 461.501 1171.2C461.501 1171.53 461.495 1171.95 461.483 1172.48C461.468 1173.18 461.441 1174.07 461.405 1175.14C461.341 1177.31 460.781 1178.93 459.725 1179.99ZM476.329 1187.67C476.42 1187.74 476.515 1187.81 476.614 1187.86C476.794 1187.95 476.987 1188 477.193 1188H483.241C483.593 1188 483.881 1187.89 484.105 1187.67C484.329 1187.44 484.441 1187.15 484.441 1186.8V1175.95H498.313C498.5 1175.95 498.668 1175.92 498.818 1175.86C498.952 1175.8 499.071 1175.72 499.177 1175.62C499.401 1175.36 499.513 1175.07 499.513 1174.75V1169.95C499.513 1169.6 499.401 1169.31 499.177 1169.09C498.953 1168.83 498.665 1168.71 498.313 1168.71H484.441V1161.65H499.273C499.625 1161.65 499.913 1161.54 500.137 1161.31C500.294 1161.13 500.396 1160.94 500.443 1160.73C500.463 1160.64 500.473 1160.54 500.473 1160.45V1155.6C500.473 1155.45 500.452 1155.31 500.41 1155.18C500.355 1155.01 500.264 1154.86 500.137 1154.74C499.998 1154.6 499.834 1154.5 499.646 1154.45C499.594 1154.44 499.54 1154.42 499.484 1154.42C499.417 1154.41 499.346 1154.4 499.273 1154.4H477.193C476.873 1154.4 476.585 1154.51 476.329 1154.74C476.105 1154.96 475.993 1155.25 475.993 1155.6V1186.8C475.993 1187.12 476.105 1187.41 476.329 1187.67ZM521.783 1187.67C522.04 1187.89 522.327 1188 522.647 1188H528.983C529.166 1188 529.331 1187.97 529.479 1187.91C529.616 1187.86 529.739 1187.77 529.847 1187.67C529.958 1187.54 530.042 1187.4 530.097 1187.26C530.154 1187.12 530.183 1186.96 530.183 1186.8V1161.94H538.728C538.857 1161.94 538.978 1161.92 539.089 1161.89C539.282 1161.84 539.45 1161.74 539.591 1161.6C539.815 1161.38 539.927 1161.09 539.927 1160.74V1155.6C539.927 1155.25 539.815 1154.96 539.591 1154.74C539.367 1154.51 539.079 1154.4 538.728 1154.4H512.903C512.583 1154.4 512.295 1154.51 512.04 1154.74C511.815 1154.96 511.703 1155.25 511.703 1155.6V1160.74C511.703 1160.83 511.713 1160.93 511.734 1161.02C511.781 1161.23 511.883 1161.42 512.04 1161.6C512.295 1161.83 512.583 1161.94 512.903 1161.94H521.447V1186.8C521.447 1186.91 521.461 1187.02 521.488 1187.12C521.512 1187.22 521.546 1187.3 521.591 1187.39C521.642 1187.48 521.706 1187.58 521.783 1187.67ZM544.625 1187.67C544.73 1187.77 544.849 1187.85 544.981 1187.91C545.132 1187.97 545.302 1188 545.49 1188H551.682C552.034 1188 552.322 1187.89 552.546 1187.67C552.802 1187.44 552.93 1187.15 552.93 1186.8V1174.85H564.738V1186.8C564.738 1187.15 564.85 1187.44 565.074 1187.67C565.145 1187.74 565.222 1187.8 565.306 1187.84C565.487 1187.95 565.697 1188 565.938 1188H572.13C572.481 1188 572.77 1187.89 572.994 1187.67C573.218 1187.44 573.33 1187.15 573.33 1186.8V1155.6C573.33 1155.25 573.218 1154.96 572.994 1154.74C572.77 1154.51 572.481 1154.4 572.13 1154.4H565.938C565.585 1154.4 565.298 1154.51 565.074 1154.74C564.85 1154.96 564.738 1155.25 564.738 1155.6V1167.17H552.93V1155.6C552.93 1155.25 552.802 1154.96 552.546 1154.74C552.421 1154.61 552.276 1154.52 552.112 1154.47C552.043 1154.44 551.97 1154.43 551.893 1154.42C551.826 1154.41 551.755 1154.4 551.682 1154.4H545.49C545.17 1154.4 544.882 1154.51 544.625 1154.74C544.488 1154.88 544.393 1155.04 544.339 1155.22C544.322 1155.28 544.309 1155.35 544.301 1155.42C544.293 1155.48 544.29 1155.54 544.29 1155.6V1186.8C544.29 1187.15 544.402 1187.44 544.625 1187.67ZM580.391 1187.67C580.502 1187.76 580.62 1187.84 580.744 1187.89C580.904 1187.97 581.075 1188 581.255 1188H604.055C604.282 1188 604.482 1187.95 604.656 1187.86C604.703 1187.84 604.747 1187.81 604.79 1187.78C604.835 1187.74 604.878 1187.71 604.919 1187.67C605.144 1187.41 605.255 1187.12 605.255 1186.8V1182.29C605.255 1181.94 605.144 1181.65 604.919 1181.43C604.782 1181.29 604.62 1181.19 604.434 1181.14C604.361 1181.12 604.285 1181.1 604.205 1181.1C604.156 1181.09 604.106 1181.09 604.055 1181.09H588.359V1174.42H602.615C602.967 1174.42 603.255 1174.31 603.479 1174.08C603.703 1173.83 603.815 1173.54 603.815 1173.22V1169.04C603.815 1168.69 603.703 1168.4 603.479 1168.18C603.255 1167.92 602.967 1167.79 602.615 1167.79H588.359V1161.31H603.671C604.023 1161.31 604.312 1161.2 604.535 1160.98C604.634 1160.86 604.711 1160.74 604.767 1160.62C604.836 1160.46 604.871 1160.29 604.871 1160.11V1155.6C604.871 1155.25 604.759 1154.96 604.535 1154.74C604.312 1154.51 604.023 1154.4 603.671 1154.4H581.255C581.096 1154.4 580.944 1154.43 580.801 1154.48C580.656 1154.54 580.52 1154.62 580.391 1154.74C580.167 1154.96 580.055 1155.25 580.055 1155.6V1186.8C580.055 1187.12 580.167 1187.41 580.391 1187.67ZM621.266 1187.67C621.522 1187.89 621.811 1188 622.13 1188H644.21C644.562 1188 644.85 1187.89 645.074 1187.67C645.156 1187.57 645.222 1187.48 645.274 1187.37C645.365 1187.2 645.41 1187.01 645.41 1186.8V1182C645.41 1181.65 645.298 1181.36 645.074 1181.14C644.85 1180.88 644.562 1180.75 644.21 1180.75H629.667V1155.6C629.667 1155.42 629.638 1155.26 629.582 1155.12C629.526 1154.98 629.442 1154.85 629.33 1154.74C629.106 1154.51 628.818 1154.4 628.466 1154.4H622.13C622.034 1154.4 621.941 1154.41 621.851 1154.43C621.793 1154.44 621.736 1154.46 621.681 1154.48C621.534 1154.54 621.396 1154.62 621.266 1154.74C621.139 1154.86 621.047 1155.01 620.993 1155.18C620.974 1155.24 620.959 1155.3 620.949 1155.36C620.937 1155.44 620.93 1155.52 620.93 1155.6V1186.8C620.93 1187.12 621.042 1187.41 621.266 1187.67ZM646.931 1187.71C647.155 1187.91 647.395 1188 647.651 1188H653.555C654.355 1188 654.883 1187.67 655.139 1186.99L656.963 1182.1H669.779L671.651 1186.99C671.907 1187.67 672.419 1188 673.187 1188H679.091C679.379 1188 679.619 1187.91 679.811 1187.71C680.035 1187.49 680.147 1187.25 680.147 1186.99L680.051 1186.56L668.819 1155.75C668.723 1155.36 668.515 1155.04 668.195 1154.79C667.875 1154.53 667.459 1154.4 666.947 1154.4H659.843C659.331 1154.4 658.915 1154.53 658.595 1154.79C658.435 1154.91 658.303 1155.06 658.199 1155.22C658.16 1155.28 658.125 1155.34 658.094 1155.4C658.042 1155.51 658.001 1155.62 657.971 1155.75L646.691 1186.56C646.659 1186.66 646.643 1186.8 646.643 1186.99C646.643 1187.15 646.678 1187.3 646.75 1187.44C646.776 1187.5 646.809 1187.55 646.846 1187.6C646.872 1187.64 646.9 1187.68 646.931 1187.71ZM663.395 1162.51L667.859 1175.19H658.931L663.395 1162.51ZM686.604 1187.57C686.924 1187.86 687.356 1188 687.9 1188H692.46C693.356 1188 693.948 1187.59 694.236 1186.75L699.084 1173.03L703.932 1186.75C704.01 1186.95 704.119 1187.13 704.257 1187.3C704.345 1187.41 704.444 1187.52 704.556 1187.62C704.844 1187.87 705.244 1188 705.756 1188H710.316C710.828 1188 711.244 1187.86 711.564 1187.57C711.807 1187.35 711.98 1187.1 712.086 1186.82C712.115 1186.74 712.139 1186.66 712.158 1186.58C712.17 1186.53 712.18 1186.47 712.188 1186.42L717.42 1155.75L717.468 1155.41C717.468 1155.3 717.448 1155.2 717.407 1155.1C717.352 1154.97 717.26 1154.85 717.132 1154.74C716.94 1154.51 716.7 1154.4 716.412 1154.4H710.46C710.127 1154.4 709.849 1154.45 709.627 1154.55C709.478 1154.61 709.354 1154.7 709.254 1154.81C709.103 1154.97 709.008 1155.19 708.972 1155.46L705.852 1174.18L702.396 1163.14C702.14 1162.27 701.612 1161.84 700.812 1161.84H697.356C696.652 1161.84 696.124 1162.27 695.772 1163.14L692.316 1174.18L689.196 1155.46C689.1 1154.75 688.604 1154.4 687.708 1154.4H681.756C681.604 1154.4 681.458 1154.44 681.317 1154.52C681.221 1154.57 681.127 1154.65 681.036 1154.74C680.844 1154.93 680.748 1155.15 680.748 1155.41C680.748 1155.46 680.751 1155.52 680.757 1155.57C680.765 1155.63 680.778 1155.69 680.796 1155.75L686.028 1186.42C686.063 1186.67 686.139 1186.9 686.253 1187.1C686.317 1187.22 686.392 1187.33 686.479 1187.43C686.505 1187.46 686.533 1187.49 686.561 1187.52L686.604 1187.57ZM880 206.001H80V988.001H880V206.001Z" fill="#333333"/>
</svg>
