<svg width="587" height="79" viewBox="0 0 587 79" fill="none" xmlns="http://www.w3.org/2000/svg">
<circle cx="39.4016" cy="39.4016" r="37.4016" stroke="#000000" stroke-width="3"/>
<path d="M33.8465 25.8509C33.2098 26.0156 32.8098 25.3228 33.3524 24.9512C34.0584 24.4586 34.8189 24.031 35.6112 23.6544C37.1956 22.9012 38.9276 22.3899 40.7401 22.1989C42.5406 22.0069 44.4215 22.1353 46.2232 22.6184C48.0249 23.1014 49.7245 23.925 51.2227 24.9841L51.7446 25.3552L51.9713 25.5196L52.2099 25.6851C52.5281 25.9058 52.8363 26.1015 53.1555 26.3102L53.6359 26.6053C53.7971 26.6917 53.9572 26.7901 54.1303 26.8775C54.4636 27.0634 54.7989 27.2253 55.1343 27.3872C56.4886 28.0239 57.9185 28.4865 59.401 28.7608C60.8955 29.0362 62.4436 29.1114 64.0215 28.9843C65.2041 28.8905 66.3947 28.7041 67.5952 28.4054C67.934 28.3211 68.1486 28.6979 67.8725 28.9114C67.5244 29.1702 67.1655 29.416 66.7966 29.6368C66.4267 29.8696 66.0361 30.0644 65.6454 30.2592C65.2548 30.454 64.8423 30.6228 64.4309 30.7797C62.7742 31.394 60.9632 31.7056 59.1337 31.6781C57.3042 31.6506 55.4801 31.2862 53.7659 30.63C52.9147 30.3024 52.0818 29.9042 51.289 29.4612C50.8991 29.2342 50.5102 28.9953 50.1344 28.7455L49.85 28.5519L49.5776 28.3593L49.0905 28.0034C47.8767 27.1379 46.5753 26.4456 45.1845 25.9503C43.8056 25.456 42.3361 25.1708 40.814 25.0738C40.0584 25.0318 39.2866 25.0365 38.4987 25.0881C37.7228 25.1408 36.9318 25.2282 36.1365 25.3636C35.3787 25.4898 34.615 25.6522 33.8465 25.8509Z" fill="#000000"/>
<path d="M12.3507 51.025C11.7127 51.1989 11.2984 50.5078 11.8323 50.1177C12.5472 49.6161 13.3047 49.1663 14.0921 48.779C15.6784 48.0056 17.4202 47.4738 19.2369 47.2966C21.0547 47.1076 22.9463 47.2851 24.7345 47.8376C25.6292 48.108 26.491 48.4834 27.3243 48.9164C27.5263 49.0301 27.7283 49.1438 27.9292 49.2694L28.2311 49.4519L28.5203 49.6452C28.7212 49.7708 28.8977 49.9063 29.0976 50.0438C29.2858 50.1803 29.4729 50.3287 29.6494 50.4642C29.9471 50.6943 30.2449 50.9244 30.5564 51.1317C30.8552 51.3499 31.1794 51.5463 31.493 51.7298C32.1308 52.1097 32.7961 52.444 33.4783 52.7197C34.8418 53.2831 36.3047 53.6512 37.8204 53.8198C39.3361 53.9884 40.9152 53.9705 42.5206 53.7869C43.2939 53.6984 44.07 53.5768 44.8492 53.4207C45.5011 53.2901 45.8626 54.0053 45.2964 54.3538C44.5506 54.8047 43.7633 55.1919 42.9568 55.5295C41.3331 56.1916 39.5656 56.6132 37.7562 56.7069C35.9457 56.8126 34.0826 56.5776 32.3199 56.0033C31.438 55.722 30.5761 55.3466 29.7672 54.9037C29.3633 54.6763 28.9604 54.437 28.5703 54.1868C28.1801 53.9366 27.8165 53.6527 27.4401 53.3797C27.2859 53.2582 27.1423 53.1496 26.9871 53.04C26.8319 52.9304 26.6883 52.8218 26.5321 52.7242C26.2333 52.506 25.9197 52.3225 25.5955 52.1261C25.2819 51.9426 24.9556 51.77 24.6282 51.6093C24.3009 51.4487 23.9608 51.2989 23.6197 51.161C22.2542 50.6214 20.8094 50.315 19.2885 50.2059C17.7782 50.1098 16.2025 50.224 14.6228 50.5179C13.8692 50.6484 13.1123 50.8175 12.3507 51.025Z" fill="#000000"/>
<path d="M39.6878 32.9697C39.0775 32.9697 38.4985 33.0636 37.9508 33.2201C38.2638 33.6739 38.4359 34.2059 38.4359 34.8005C38.4359 36.3497 37.1841 37.6016 35.6349 37.6016C34.9151 37.6016 34.2735 37.3199 33.7727 36.8818C33.4441 37.6642 33.2563 38.5248 33.2563 39.4168C33.2563 42.9689 36.1356 45.8482 39.6878 45.8482C43.24 45.8482 46.1192 42.9689 46.1192 39.4168C46.1192 35.8646 43.24 32.9697 39.6878 32.9697ZM39.6878 40.8095C38.9054 40.8095 38.2794 40.1836 38.2794 39.4011C38.2794 38.6187 38.9054 37.9928 39.6878 37.9928C40.4702 37.9928 41.0961 38.6187 41.0961 39.4011C41.0961 40.1836 40.4702 40.8095 39.6878 40.8095Z" fill="#000000"/>
<path d="M39.6879 49.1813C45.0893 49.1813 49.4681 44.8026 49.4681 39.4011C49.4681 33.9997 45.0893 29.621 39.6879 29.621C34.2864 29.621 29.9077 33.9997 29.9077 39.4011C29.9077 44.8026 34.2864 49.1813 39.6879 49.1813Z" stroke="#000000" stroke-width="1.92013" stroke-miterlimit="10"/>
<path d="M120.963 12.9409H106.323C103.603 12.9409 101.603 14.9409 101.603 17.6609V65.0209C101.603 67.4209 103.523 69.4209 106.003 69.4209C108.323 69.4209 110.243 67.4209 110.243 65.0209V48.5409H120.963C133.443 48.5409 141.363 41.1809 141.363 30.7009C141.363 20.6209 133.443 12.9409 120.963 12.9409ZM120.643 41.1009H110.243V20.3809H120.643C128.003 20.3809 132.963 23.6609 132.963 30.7009C132.963 38.1409 128.003 41.1009 120.643 41.1009ZM202.941 62.9409L182.221 15.8209C181.341 13.7409 179.981 12.6209 177.981 12.6209C175.981 12.6209 174.701 13.7409 173.821 15.8209L153.101 62.9409C152.781 63.5809 152.541 64.4609 152.541 65.2609C152.541 67.4209 154.381 69.2609 156.781 69.2609C158.701 69.2609 160.221 68.1409 160.941 66.5409L165.821 55.1009H190.221L195.101 66.5409C195.821 68.1409 197.341 69.2609 199.261 69.2609C201.661 69.2609 203.501 67.4209 203.501 65.2609C203.501 64.4609 203.261 63.5809 202.941 62.9409ZM168.781 48.2209L177.981 26.6209L187.261 48.2209H168.781ZM264.143 12.7009C261.823 12.7009 259.823 14.7809 259.823 17.1809V53.4209L231.583 15.2609C230.463 13.5809 229.023 12.7009 227.183 12.7009C224.943 12.7009 223.103 14.1409 223.103 16.8609V64.8609C223.103 67.2609 225.103 69.3409 227.583 69.3409C229.903 69.3409 231.903 67.2609 231.903 64.8609V28.6209L260.143 66.7809C261.263 68.4609 262.703 69.3409 264.543 69.3409C266.783 69.3409 268.623 67.9009 268.623 65.1809V17.1809C268.623 14.7809 266.623 12.7009 264.143 12.7009ZM317.299 12.3809C303.299 12.3809 289.459 24.0609 289.459 40.9409C289.459 57.8209 303.299 69.5009 317.299 69.5009C331.299 69.5009 345.139 57.8209 345.139 40.9409C345.139 24.0609 331.299 12.3809 317.299 12.3809ZM317.299 20.5409C327.139 20.5409 336.099 28.7809 336.099 40.9409C336.099 53.1009 327.059 61.2609 317.299 61.2609C307.539 61.2609 298.499 53.1009 298.499 40.9409C298.499 28.7809 307.539 20.5409 317.299 20.5409ZM396.526 12.9409H362.606C360.526 12.9409 358.766 14.6209 358.766 16.7809C358.766 18.9409 360.526 20.6209 362.606 20.6209H375.246V64.8609C375.246 67.3409 377.246 69.4209 379.646 69.4209C381.886 69.4209 383.886 67.3409 383.886 64.8609V20.6209H396.526C398.606 20.6209 400.366 18.9409 400.366 16.7809C400.366 14.6209 398.606 12.9409 396.526 12.9409ZM428.212 61.3409V44.4609H444.532C446.612 44.4609 448.292 42.7809 448.292 40.7809C448.292 38.8609 446.612 37.1809 444.532 37.1809H428.212V20.5409H451.972C454.052 20.5409 455.812 18.8609 455.812 16.7009C455.812 14.6209 454.052 12.9409 451.972 12.9409H424.292C421.572 12.9409 419.572 14.9409 419.572 17.6609V64.2209C419.572 66.9409 421.572 68.9409 424.292 68.9409H452.772C454.852 68.9409 456.612 67.2609 456.612 65.1009C456.612 63.0209 454.852 61.3409 452.772 61.3409H428.212ZM514.018 56.5409C512.338 56.5409 511.218 57.3409 510.178 58.1409C508.418 59.5009 504.898 61.2609 500.418 61.2609C490.418 61.2609 481.218 52.6209 481.218 40.9409C481.218 29.2609 490.418 20.6209 500.418 20.6209C504.898 20.6209 508.418 22.3809 510.178 23.7409C511.218 24.5409 512.338 25.3409 514.018 25.3409C516.098 25.3409 518.018 23.9009 518.018 21.4209C518.018 19.4209 516.658 17.9809 514.258 16.3809C510.658 13.9009 506.018 12.3809 500.338 12.3809C486.258 12.3809 472.178 24.0609 472.178 40.9409C472.178 57.8209 486.258 69.5009 500.338 69.5009C506.018 69.5009 510.658 67.9809 514.258 65.5009C516.658 63.9009 518.018 62.4609 518.018 60.4609C518.018 57.9809 516.098 56.5409 514.018 56.5409ZM573.074 17.1009V37.7409H546.274V17.1009C546.274 14.7009 544.354 12.7009 542.034 12.7009C539.554 12.7009 537.634 14.7009 537.634 17.1009V64.7809C537.634 67.1809 539.554 69.1809 542.034 69.1809C544.354 69.1809 546.274 67.1809 546.274 64.7809V45.1809H573.074V64.7809C573.074 67.1809 574.994 69.1809 577.474 69.1809C579.874 69.1809 581.714 67.1809 581.714 64.7809V17.1009C581.714 14.7009 579.874 12.7009 577.474 12.7009C574.994 12.7009 573.074 14.7009 573.074 17.1009Z" fill="#000000"/>
</svg>
